<mxfile host="app.diagrams.net" agent="Mozilla/5.0 (Windows NT 10.0; Win64; x64) AppleWebKit/537.36 (KHTML, like Gecko) Chrome/127.0.0.0 Safari/537.36 OPR/113.0.0.0" version="24.7.17">
  <diagram name="Страница — 1" id="uyJ8wExBpJMKKmxKwTSE">
    <mxGraphModel dx="835" dy="506" grid="1" gridSize="10" guides="1" tooltips="1" connect="1" arrows="1" fold="1" page="1" pageScale="1" pageWidth="1169" pageHeight="827" math="0" shadow="0">
      <root>
        <mxCell id="0" />
        <mxCell id="1" parent="0" />
        <mxCell id="JCwLTpMFITTxm-Wv9MS6-1" value="" style="rounded=1;whiteSpace=wrap;html=1;labelBackgroundColor=none;fillStyle=auto;fillColor=#1ba1e2;strokeColor=#006EAF;fontColor=#ffffff;" vertex="1" parent="1">
          <mxGeometry x="40" y="123" width="170" height="280" as="geometry" />
        </mxCell>
        <mxCell id="JCwLTpMFITTxm-Wv9MS6-2" value="" style="endArrow=none;html=1;rounded=0;" edge="1" parent="1">
          <mxGeometry width="50" height="50" relative="1" as="geometry">
            <mxPoint x="40" y="154" as="sourcePoint" />
            <mxPoint x="210" y="154" as="targetPoint" />
          </mxGeometry>
        </mxCell>
        <mxCell id="JCwLTpMFITTxm-Wv9MS6-3" value="Bank name" style="text;html=1;align=center;verticalAlign=middle;whiteSpace=wrap;rounded=0;fontStyle=3" vertex="1" parent="1">
          <mxGeometry x="91" y="130" width="68" height="8" as="geometry" />
        </mxCell>
        <mxCell id="JCwLTpMFITTxm-Wv9MS6-4" value="Monday 01.01.2000" style="text;html=1;align=center;verticalAlign=middle;whiteSpace=wrap;rounded=0;fontSize=7;" vertex="1" parent="1">
          <mxGeometry x="50" y="143" width="70" height="10" as="geometry" />
        </mxCell>
        <mxCell id="JCwLTpMFITTxm-Wv9MS6-6" value="" style="shape=message;html=1;html=1;outlineConnect=0;labelPosition=center;verticalLabelPosition=bottom;align=center;verticalAlign=top;fillColor=#fff2cc;strokeColor=#d6b656;" vertex="1" parent="1">
          <mxGeometry x="180" y="138" width="17" height="10" as="geometry" />
        </mxCell>
        <mxCell id="JCwLTpMFITTxm-Wv9MS6-7" value="" style="rounded=1;whiteSpace=wrap;html=1;fillColor=#66FFFF;" vertex="1" parent="1">
          <mxGeometry x="50" y="163" width="150" height="90" as="geometry" />
        </mxCell>
        <mxCell id="JCwLTpMFITTxm-Wv9MS6-8" value="" style="shape=image;html=1;verticalAlign=top;verticalLabelPosition=bottom;labelBackgroundColor=#ffffff;imageAspect=0;aspect=fixed;image=https://cdn3.iconfinder.com/data/icons/user-interface-169/32/plus-128.png" vertex="1" parent="1">
          <mxGeometry x="115" y="193" width="20" height="20" as="geometry" />
        </mxCell>
        <mxCell id="JCwLTpMFITTxm-Wv9MS6-9" value="Добавить карту" style="text;html=1;align=center;verticalAlign=middle;whiteSpace=wrap;rounded=0;fontSize=8;" vertex="1" parent="1">
          <mxGeometry x="80" y="218" width="90" as="geometry" />
        </mxCell>
        <mxCell id="JCwLTpMFITTxm-Wv9MS6-14" value="" style="rounded=1;whiteSpace=wrap;html=1;fillColor=#66FFFF;" vertex="1" parent="1">
          <mxGeometry x="50" y="263" width="90" height="90" as="geometry" />
        </mxCell>
        <mxCell id="JCwLTpMFITTxm-Wv9MS6-15" value="" style="rounded=1;whiteSpace=wrap;html=1;fillColor=#0079D6;" vertex="1" parent="1">
          <mxGeometry x="150" y="263" width="50" height="40" as="geometry" />
        </mxCell>
        <mxCell id="JCwLTpMFITTxm-Wv9MS6-16" value="" style="rounded=1;whiteSpace=wrap;html=1;fillColor=#0079D6;" vertex="1" parent="1">
          <mxGeometry x="150" y="313" width="50" height="40" as="geometry" />
        </mxCell>
        <mxCell id="JCwLTpMFITTxm-Wv9MS6-17" value="Курсы валют" style="text;html=1;align=center;verticalAlign=middle;whiteSpace=wrap;rounded=0;fontSize=8;" vertex="1" parent="1">
          <mxGeometry x="50" y="263" width="90" height="20" as="geometry" />
        </mxCell>
        <mxCell id="JCwLTpMFITTxm-Wv9MS6-18" value="" style="shape=image;verticalLabelPosition=bottom;labelBackgroundColor=default;verticalAlign=top;aspect=fixed;imageAspect=0;image=data:image/png,iVBORw0KGgoAAAANSUhEUgAAAgAAAAIACAYAAAD0eNT6AAAAAXNSR0IArs4c6QAAIABJREFUeAHtnWm7FEW6rrn2+ba/nB+w/8D5A/sHnN7djYK0ioLi0Di3E4iIoratONs4oAgoKPM8yyAis0wyyizKJIjMM2qfvW3tONeTi1grKldmVWZGVq0s8va6llmVlcObdzxEPJkZ8UanTvwHAQhAAAIQgAAEIAABCEAAAhCAAAQgAAEIQAACEIAABCAAAQhAAAIQgAAEIAABCEAAAhCAAAQgAAEIQAACEIAABCAAAQhAAAIQgAAEIAABCEAAAhCAAAQgAAEIQAACEIAABCAAAQhAAAIQgAAEIAABCEAAAhCAAAQgAAEIQAACEIAABCAAAQhAAAIQgAAEIAABCEAAAhCAAAQgAAEIQAACEIAABCAAAQhAAAIQgAAEIAABCEAAAhCAAAQgAAEIQAACEIAABCAAAQhAAAIQgAAEIAABCEAAAhCAAAQgAAEIQAACEIAABCAAAQhAAAIQgAAEIAABCEAAAhCAAAQgAAEIQAACEIAABCAAAQhAAAIQgAAEIAABCEAAAhCAAAQgAAEIQAACEIAABCAAAQhAAAIQgAAEIAABCEAAAhCAAAQgAAEIQAACEIAABCAAAQhAAAIQgAAEIAABCEAAAhCAAAQgAAEIQAACEIAABCAAAQhAAAIQgAAEIAABCEAAAhCAAAQgAAEIQAACEIAABCAAAQhAAAIQgAAEIAABCEAAAhCAAAQgAAEIQAACEIAABCAAAQhAAAIQgAAEIAABCEAAAhCAAAQgAAEIQAACEIAABCAAAQhAAAIQgAAEIAABCEAAAhCAAAQgAAEIQAACEIAABCAAAQhAAAIQgAAEIAABCEAAAhCAAAQgAAEIQAACEIAABCAAAQhAAAIQgAAEIAABCEAAAhCAAAQgAAEIQAACEIAABCAAAQhAAAIQgAAEIAABCEAAAhCAAAQgAAEIQAACEIAABCAAAQhAAAIQgAAEIAABCEAAAhCAAAQgAAEIQAACEIAABCAAAQhAAAIQgAAEIAABCEAAAhCAAAQgAAEIQAACEIAABCAAAQhAAAIQgAAEIAABCEAAAhCAAAQgAAEIQAACEIAABCAAAQhAAAIQgAAEIAABCEAAAhCAAAQgAAEIQAACEIAABCAAAQhAAAIQgAAEIAABCEAAAhCAAAQgAAEIQAACEIAABCAAAQhAAAIQgAAEIAABCEAAAhCAAAQgAAEIQAACEIAABCAAAQhAAAIQgAAEIAABCEAAAhCAAAQgAAEIQAACEIAABCAAAQhAAAIQgAAEIAABCEAAAhCAAAQgAAEIQAACEIAABCAAAQhAAAIQgAAEIAABCEAAAhCAAAQgAAEIQAACEIAABCAAAQhAAAIQgAAEIAABCEAAAhCAAAQgAAEIQAACEIAABCAAAQhAAAIQgAAEIAABCEAAAhCAAAQgAAEIQAACEIAABCAAgZIS+HzQ2P8z84mRw0bcN/zrv/Uc+lP/7kP/hz8YoIHGaGDgTe/9zwe3vfnz8nteuXTskefO/dbv6TP8wQANoIE0Gvj16ecP//P1txf8Muyjfv8YP/4/atqZGTNm/K9RD4zYcm3nD83/7fwRfzBAAwXQwMvXvGwud73NmK49+IMBGkAD6TXQ/Q7zy+B3p5lBg/4t0ggsfPbjrv1uHPoLDT/GBw0UTwM3dx5mNnR5KP0/fCpLmKEBNHBFA7/1fercL6PG/meFCVj6xsj/fW+393+j4i9exU+ZUCZWA3/oPMrs63IvlRkNGhpAA5k18NsDff9hRo7891YTMKT3sKO2kmFJg4MGiquBu64ZYn7pekvmf/y8RuA1ChpAA7+++Pd1gQH45OmPB/5X51G86y3Au14a3uI2vEUqm4+vfRYDwB0gGkAD2TXQ7Rbz64djbun0/r3DDhSpciMWGkE0UF0D91wzJPs/fCpN2KEBNNC1h/n1tbeWdnr65qH/jwq3eoULH/gUSQN6YvffXW+lEqMhQwNoILMGfhvw3LFOt3QZzuN/Hv+jgSbTwJ4u92f+h887YN4BowE08K87H/hnpyLd2RALd9poIJkGVnTpgwHg7g8NoAEvDWAAmuzOjwYyWQN5tXNajgHwqvi4A+YOGA30MBgADACP/5tQAxgAGjAaMDTgqwEMQBNW/lf73S3XV/spBwaAyt+38md/NIQBwADwBKAJNYABoPKmAUcDvhrAADRh5c8dcu075KudEQaAyt+38md/NIQBwADwBKAJNYABoPKmAUcDvhrAADRh5X+1391yfbWfcGAAqPx9K3/2R0MYAAwATwCaUAMYACpvGnA04KsBDEATVv7cIde+Q77aGWEAqPx9K3/2R0MYAAwATwCaUAMYACpvGnA04KuBuhqAeQt3Gf01493Ybb2nmW/3nTD9BsxvyviHfbDWbN12xPyh6+imi7/L9WPNzt0/mMHvrGq62KX1Z/72mfnm2xPmplsn1S1+DACVv2/lz/5oqG4GoMdtk81PP/0c/Olzs5mAMeM3mp9//tms/GJf08X++y6jzalTF4L4BzzzadPFP+iVpUHs3x0+3XSxS+ebtnwXxD90+Jq6xY8BoPKmAUcDvhqomwF4d9iaoBJUI6rPzWYA9u0/GcR/6dKPpuuN45oq/v4DF7Syn7eg+Z7ALFvxTWv8f3l0TlOxv6nXpMD0SvdfbTtSt9gxAFT+vpU/+6OhuhmArV8daa3E9bmZDMDdD8xsjV0V+cuvL2uq+Od8sqM1fj0J0BOBZuF/7fVjzfkLl1rjnzhlS9PELsZDhq5ujV3aueWOKXWJHwNA5U0DjgZ8NVAXA9Dz9pbH/6oA9adXAVrXLI3QmPGbKirxVav3N03s/3Xtx+bEyfMV8T8xcGHTxP/Cy0sqYj946FTTxC59b95yuCL+oSPq8/QLA0Dl71v5sz8aqosBGDp8bUUlKBOgdc1iAPbtP1ERv14DXNe9OV4DqNOiNV52OWfezqZh//nSve3iv//h2U0R/829Ko2v+G/f8X1dYscAUHnTgKMBXw1kNgB/vne6mTJtq5k64yszfeY2M33WNjNj9jYza852o7s22/jYpdbpN22jbbWP9tUxdKxGm4O/v70yOP80J/6Zs7eb+Qt3t4td16CnAPo9iH/mNqP9FP/wD9c1vKf9jbdMNHo0rvMH8V9hr/i27zjaLv7Tpy+2Y6/9pkzfah7rgFEOTz37aXDuMHvp4/z5tsf/Vju6q25lP6uN/biJm0237uMbqp3O3caYkR9/2cZ+ZovuFd+69Qfbsdc16JWMfre6t9p56bWlmWNfPGeL+cex4/zBAA2ggcwayGwAJk3dElnZ2Uo7zVLHaqQB0NA4NYppYqy2ba/eUxsa/2uDl+cWuxqtRrLXuXRXXI1nmt8GPreoofHf99Ds3GL//ugZ87trsiU1+uzzr3OLIw1vtm15rQkHOFwNGshsAK7pNtbMnb/TuxLSMXSsRjdCqsj3H2jp6Z+1IE+dvhCM+W507L+75mMzavSX5scff/Li/+WGQ6b7LRMbzl4d49xOoln4X7x42bz93hcNj11lPeiVJebsWT8D+fXe415PvjAANEBZ/t2wD7pxNZDZANhGL6gMz7V/bOueJOrz2XOXgorUHqcjlko4s+jzPZkaUTVgPevUwzspi77955ujR8+mjl/GQY+xZSSSnivv7TQyYcLkLa1D5qI0ErdOxu2+B2d1WOxiccfd082u3T+kZq9rUp8MX9OLAaAij/v3wXq0kVQD3gbAVobK3Jb0pNpWFWjejUrW473x1sqKoWfVrkMjGsZP2lyYoXU39JhgVq89kJi9DIOMQ1ZWee+nREXHT1SOWqjGf9HiPUbGLe84shzvj9eNCd7rV4vX/a3F9GZ/7+/GiAGgkne1xWf0kEUDuRgAVUyqDFes+rZmQ6RttK1bmRXh8133zzDnEjzJePb5xYWLXe+R1ZmylgD2fnPcXH/zhMLFr+Q5UR1Hw9czYuS6wsUu7b7699p9Mk6evGBuv2tabvFjAKjww/8++I4m0mogNwOgijDJnai2KUKDH47h1jun1mxABffp5z4rZPyTp9Y2AD6dzsK88vyuTplnztR+p64RF3meN69jvfLGspra0WuXP92c34gFDACVfdrKnu3RTFgDuRkApcvVePnwCcLfi5pa973hbamLwzG734uaWjfJHbSuo4ipdd3UxS7r8Odt2+szpt7XCCR58qVr0ZMC33PZ/TEAVObhfx98RxNpNZCbAVBnwPDJL1/+0egvvF7b2oqsKMtNm1smcHFjvXDhcrvYlWVP2faKErfiCKcuttcQFb/GzhcpdsWiMfI2ZruMil39L4o2sZRSF0fFGrVu5ar8JpbCAFDZ238rLNFCVg3kZgCWLKvM4Hbg4EnzYJ+5wZ8+uwFqW99GqPN1Y4K0q28O8Z8yVol1fvqpckidpjFW9j/1lg+bmDw60T3+5IKgF7myx/my+GjMhgq+Gp74txc/N3qtsWVrZWpaTXHsez7trychU6d/5X0s9V8Ij2RYv+GQUb8A3TGHh9vlMfRPiaf2fH3MPNR3rnf84uxqW0+4lPWy203jTTiroUxBlxvyySiJAaDSd3XHZ/SQRQO5GAANaXI70C34dHdFT2312tY6G6C29R0GpTnXdTw1HlmTqdiGUFkBbWxKEPT8S5VPKB7qM9ccPNiW3VAd7uy+WZdr1rX03M+jY5s7HG3DpkMV8y7oacXHYzdW5Ay4426/zmi3/rmlv8Tlyz+Z63v4dSqUSbTs1XgO+2BtRXmq45we/dttNmz8zpu9MiDqeGpEs5af3U+jEmxs33x7wtwbGp6opE2uiQlryx4n7RIDQIVvdccSLWTVQC4G4JF+nwSVoBrPQS/HD3PSbzYDn/ZJW+m52y9c1FbxPvKY57E+aznWxk3fxY7tl4mx59yx86hX7H+6eYJR46lC05BI97rSftYdpR6N6ynFB6PWx47tf7TfPHP48OngnK8PXuF1zmEfrmtt9GSe0sbsbq/JcsRB8y/E5fxXzoCxEzYFT2mUAMjnFYzM4pEjZ4JzyojqSZIbT9rPR75vOZZeY8SZWg15tdkPlQI77TmitscAUOlnrfTZD+1YDeRiADp3G2PefX9NbOPpVmBKnqNttY+7Ps3ncK9x3dGl2T+87QOPzAmm/E2SGGfgXxcZjV0PHyPN9zfeXBE0QLYQbvMcHqYGPa7xdOPSKw09Qr/p1kle8csA2djXfemXSvi23tPMW0O+MHqX7sYa9fnhxz4xL70abzCj9gmve7DPnNbYdQ3PPO83qkPDQh9/akHN2KVZlZP6a4RjyvIdA0Albv8NskQLWTWQiwHIUoH57KNG2L1g3YX5vgbwiSftvmuvPP631zBi1PpcGoW0cWTZvteVx/82dg1vUzKiLMfqiH3Cc1h8+tmepond5YUBoNK3/wZZooWsGmhKAzB/4a4KA6CL13t6t4Is6mf38b8tNL3DL2q84bg0Ft/GbZeDPV8DhM9Rz+/fXXkNYmNX/oE/Xje6afhbNhgAKn2rYZZoIasGCmsA+j4xP0i5q3zxmvpWd25KdqPH/acjksZoytjJ07YG22hb7Tdh0majHvLXNXjK2D90GW2UV0Dnt/ErdsUXN2Z8xuztwe+KXddr43/xFb9H3rbBSLPsfd+MFvaTNrdjf+i7ln4EruA0ssBlH8Q/abMZN2GTufXOKQ1vXF8bvCKS/dx50ZNXqTG18bvs9bokyWuhNGzz2hYDQKXv/hvkM3rIooHCGoDNoeFrWS7O7vPCy5W9+vOqhOOOc9f9M9vdJdtY0i5Pnjxvft+lsXkHZs3dkVv8Y8ZvaqgBuOZPY8358+knp4orlx63+w/TjNOJz3oMABV+nGZZjzaSaqCwBkB3jl9taxv+lfSC3O30frpaz3ifCrjWvi+9trRiaKQbV9LPBw6eStS5r1YsaX9XVsfFSyrzOiSN2d1OuQLUIKc9v+/2jz4+z9je+W48aT6fPn3BFHHeB8sGA0Aln0bPbIteojRQWAOgik6P0vVIVsPcooKvtk4NgO9QQ1vZZl3eec90s3tP8lkS3etRA6yGOOu589hv8DurzIWL7bMhunFGfdbwOhmgPGLIegz1tVi1en9q3eh6tm47Ym7p4Kmea103BiB9nRClVdbBscwaKLQBsJXgk898ak6kmDJ25Rf7jBoAu39HLjXOPCrVbZzo1OAWqVOdhq3pHX9cvOH1Mjy+iYbyKi+NDFFWvksR6ajDceu7jKYMp4xnXjHU6zgYABquKA2zDl2k0UBTGABVokqZe+BAZUrhqAtVx7MiDgl85Y3aU8aqc2Ne48TzbHg0Rl/j/aN4u+uWr/jWO7FOnnHbY2kCpIsX289J4cauz8ouafcp+hIDQEUf1i/f0URaDTSNAVBv7GPHz9VshJS7v4iV93ODKnPGRxWU5iPQvARFjH99AgOwZNk3hYxd6YSjeIfX9XuydkKfopQNBoDKPqxfvqOJtBpoGgNg0w3XukDf1Lr1quAXLf46USPkm1q3HvH/6abxramLq/FX7/vOHhke6xG7jummLq4W//RZ+aTprdd1uMfFAFDZV9Myv6GPJBpoGgMQzuCmi4t7t9sRY8/dyjn8OZy62BZMVPyaJCi8f0d/16x8Nma71AiLqM6Zvql163GtUaNJotir42g9zl+PY2IAqODtv0WWaCGrBupqAJRzvntOj7Q1JM69SPXUVlra199c0W64nZLw5FHpama3PPoTqBOjG7saTyUourHnRLN0+TcVv6lhui6H3v96b59XZzzNY+/Gf+jQqWAqXT0y//5oy2Q49vcFi3bnwl7JiP7oOVGPNKC+I2Gjohg1i6FMZfi3Bx6e7R2/Xlfd85d8cv7H6RgDQKVv/82xRAtZNVA3A6CG88DBk8GfbyOqjnH2AvWefPS4jRXJcfSOd7szQY2yAsZVnEnX9x+4IDinpqdNuk/cdnOcDHTKpPfwY5VpizU5kDud8oueE94oji/W7Deaf943T7+MhDsUUDMiusMTNdpi2Yo2E3Pq1AXvXvS9ek8NZjfUa5M4pknXv/3uF63aUSfLQa9UJoXqP3Ch+eFYW98SzTqY9Nhx242buDkwFprqOG4b3/WLZ240/zh8hD8YoAE0kFkDdTMAys1vG23fPP1KyapjaRrXPo/Pi6xUNXRr/CRVvD8Z3WHrsbtPJTt/4e7gnLv3HPM6jmKwoxc08YzbeLrx6W7dzrInw+D+lvbzn27WO/uWXu++fQp0ly/2ajyrpSV+462VxmbgSzIzYbVrkunSOWWK4qbYrba/+9uSZS0JjWQK48b2yyRp6KjOqQyU7v5ZPh/6ruVple8sldXOvbxLH2O69uAPBmgADWTWQN0MgHLfq0LVnz5Xq8xq/aZH/RrP3e2m8TWPoyxwvuPoZR5On77YGr/mc68VY7XfNQIgybtxmRgl39GwtWrHq/Wbpp217H2n6+1ywzijCYCS9KtQ4iNt62u+tu9om25Y7Gpdb7XfpQe9Jvqva2unU5bBeepZv6meVXaWvV6P+D79irs2DADmBwOIBnw1UBcDoErv8JG2d8P6XK+KMK6C9Fkfnm74w4+KObQw7hpXrz3Q2gjpSYCeCMRtW7T1t945tTV2NaSLPm+u6XonOcZX8T/aL/qJlS93DACVv2/lz/5oqC4G4KG+bY//7d2Q1vlWeo3af8GnLY//bex7vvZ/DdCo2Lt1H28uXapMeqM+Bo06v+95ho5YU2EAzp69WMihhXHXGZ5ueOqMr+rCHgNA5U0DjgZ8NVAXAzBlWtvjf9uIal1cpVmk9XFD9vLqUV/va301IuNgEYcWxnH4atuRCgMg/Tz7fHNk6FOnP6t3uzx69GxdphTGAFD5+1b+7I+GMhsAdfpS7+njx8+ZEyfPm5MnLxj1ANe7c9sBzVaCWmqdftM22lb7aF8dQ8eKaxDqsV7DyzZs/C44//ET59viP33BnD0bPZWsOridOt1yjUHsJ1ri37X7B3NTr0kNjf+xAfODVyzip/gte8V3MWLyHg11a8f+xHlz7Ng5M2lK443ZnE92BOcOs3f7Xbja0WgGy17Xqv107QcPnfLuL5FWX7f1nma++fZEhXakacV3/kK0ds6cuRj83qr7K/FrpEbWV2MYACpvGnA04KuBzAbgpVeXthtD7VbaST+rcdKx0lbEvttv2vxdu7u1pDG72yl5TJcbGjvlrV6nqFF048j6ecLkLQ1nP3vujlxil1n7871+HTTT6kipmmU+svJ299PIg7Tnt9tjAKj8fSt/9kdDmQ2AKiKNlfepDLWvjmErtUYu9ahf72fdCjnt55ZZBzumg51yI+zbX3typLhrkoHwHS2Rtbx01zt0+Jp2fRXiYo1aryGTuhvPGoPPfkpwpSdIUXElWSfTq3wDSUYmxMWJAaDypgFHA74a8DIAqpyU6e/LDYdSV4baJ68sgXGVZJL1mgFOj2+TVNx2G3Wy07DErI9vk8SVZBsl6VFiHhtX0qWMQxFmHdQ7cztmPmns2k7j632HGibhW20bZfsbNfrLIOdEmtj12uXxp/xNLwaAyt+38md/NORtAFRJpqkMlaRHFaf2qVbBNvK3nndMMVu/at/5LKpi74j3zrVYqOOfTcITFbO7TiMcZBxqHbNRv1/XfVy7dMhuvO5nGbWiTdnbt/98o45+bpxxn/M0vRgAKm8acDTgq4FcDIBtLKYleKSubez2RVrqjlJDzuIqb7u+0e+ckzJ6a0hbylsba3ipfg9Jj9fo7TTUMhxv+PtfX1hcyPgffuyTmrHrzj9P04sBoPL3rfzZHw3lagC+3nu8ZkWobRrduCQ5X9Lpht8csqqQ8S9eUnu6YfVSL9Ldvy2X62+ekOhR+vSZxZyu98OP1tfUvcyMJjiy1+y7xABQedOAowFfDeRmAJQuN3zHFvfdN7Wub+UZtX/UdMNR8a9bfzC3SjwqjizrNKzx7LnoIWjhayjiXfRrg9tPNxyOW9/rmVo3C3e7z85dbamLo+K260Z+nF9GSQwAlb9v5c/+aCg3A2AncLGVnZa62496KpDHDHuqfDULYF6dwfRu341dPbWXrfi23bh6dQDUe2tb+fss83qdEJ5uWNeh/ApRPdXVadAnZruvhsMlmZvBbl9tGZ5uWPGvXXcwyBnhlok++86TYOPIi70mGArHqEmMoq5p5+4fcmGva8AAUHnTgKMBXw3kZgDCGdz0rr9ztzHBX7hvgLa1FXHWpYZiaSib5kXPegy7370PzqqoxPW+dsAzLZPC3H3/zHYmJjylrD1OmuWIkeuCmQv16iHNflHbKrGO2whpeKJmuNMohfdCw+3Uke73XfxmStS7bPXezyNFcjDdsJPTQJ0ZbWKom3tNbjfCRDM+RjFIs+7Z5xcHvPJ4nfPusMrUxZrIyD7h0kRGShLklo0mtkoTa9y2GAAqf9/Kn/3RUC4GQBW17phV0Wlsv+5IwxWX1tmcAdpW+4S3SfPdThEsE6AZ69LsG9529LiNrZX0qtX7zQ09J1Ycr3O3MUbvn21F/vnSvRW/h4+X5Luyyel4M2b7vddWYyzDomOJxdvvftEuNhmcb/e1nE/b9Rswv902SWK222iGPctCBsmuz7JUI2mPpayKmlHQPY6uT0+M7PwG+/afqPjd3TbpZ3eK4KT7xG1nE0ppGmqZk/ATqR63Ta54EqPho3HHSrMeA0DlTQOOBnw1kIsBsHfQSm0abjzdSk2/aRtV+NrH/S3t5w2b2nIPDHrZL5PgrLk7WhrP99o3nm5cmipWJmbTFr/e9OoMZhs9397h1/xpbJCCVnfj1TqZaTubgc+Xl2uGxozf6FWOMiwyhOqDEW48Xfb3PzzbqPHXHbVPAp2A1/mW/hI6r28aZ+VUUDbIvk/Ez/onEzN85LrAxOTxBENcMABU/r6VP/ujoVwMgCokvRN2K+xqn9NsG3Uc7a87LtuILl3+TeJzRx1PjULXG5M9RdC2vql/Px7b9sRB11Ct8YiKN7xO0/1Wazzd7fVqwOcVgBoz9S+w7H3vyBV30umKta1vv4O/vdj2xEHX8M7Q1V7aUX+Qa7oly6ugbTt3G+N1PluWGAAqbxpwNOCrgdwMgK2YGrHUu1vbAGlZ1OFtcSzcx/GKf9ac7bk0CnHny3O9Et+47PX5nr/4vQbIM75axwoPl9y4ye9pTq3z1et3DACVv2/lz/5oqCkNQFTqYd3Z1auyzfO4emcebkD1WsHnsXae8dU6lvoshONXXvta+xXhd92pq4e+G7+eJBUhJXVaPhgAKm8acDTgq4HCGoBJU7ea7w6fDqa91TtWjQFXylU9frYdDt2KXBX70R/OBtto28NHzpjDh08HE+Y81GduQxsodfzavuP74PyKQ/ErdsWnqWHduO1nTXGr3xW7trfxaziZzyP7tA2LttcTloD94dNBLC572xnPxq2lpiB22QfxHz4dTNf7/EtLGsper2iUq0FlH2avaZzduO1njYyw8bvsN285bJSkKAvDeu+DAaDy96382R8NFdYA6LG4raB9lno9cN9DsxtaiavRUIPuE7fdV50d692YhI8ffsViY0m7lFHz7XAYjq3Wdw191GiCtLFGbS/jI0NR65wd8TsGgMqbBhwN+GqgsAZAFfn7I9aay5d/zFyZa6jdXffnl341TUWv3uUbNmWfMlYNknrbK8tfmvPmta0yBp4+Hf20IqqxDK+TAXpi4MIOiV2N9ryFuzLrRtei0SpFvftXGWMAqPx9K3/2R0OFNQC2IdPjez2ODjcwtb7PW7Crw+/e9F7/ozEbKkYs1Ipbv6vhVbIay6CjlrfeOdWEEzwliV/GR4maOipue96XXluaaIIn95r0ikPGs6OnerbXELfEAFB504CjAV8NFN4AqALs1n18kJbXrajjPmtGv5de9csLEFfpZl2vYX56xxwXs7teDa4a3qznyns/Db1Tf4yofhdu3PqsDnUyPBoqmHccWY93x93TzO49tWcaVPwymo3uL5L1ujDtJEP2AAAgAElEQVQAVP6+lT/7o6GmMAC2klSa1XCjE/5etMbfxv7AI7Nrxq7OaEnH89vjNmo5d/7OmvHLKDQqnjTnUbphdVQMayX8/bbe0woZf9S1Ln30HfProNf5gwEaQAOZNdA0BkDJd6J6oIcrcWW7i6owO3qdcvKHY436fp9nhsR6Xacy3kXF667btv37QrLXExg3zrjPr7yxrJDxR5Wp5sCIuw7Wt6QlhwMc0EB1DTSNAXjh5SWJKjzf1LpRlW0e62zO+FqC1LwEeZwvz2No5rxacet3vSbwneMhz7jtscKTUcVdi2Z/tPsUfYkBqF6xxZUx6+GGBto00DQGIKrCU6Oqx+bhAn20X3xe9o6o2DUHgpu6WPHqkfSadQfaxb73m+OFa4Q+/OjLyDgPHGz/VECTNHUE47hzqjOfxvaHNbJ6zf52I0w0E2FRh/2Fry/q30P4GvneVtHBAhZooL0G6moANAY8j3Hgei9+9mxbBje9Chg6fE3QUzuYbS003G5yDu+i9d5YE7f0vN1v1kJV3H9/e2VFA6ThiTZ9rjIYhk2MnU42XOmn+S4TNPzDdbk0xprH3v3HM33WtiCnvWZhnL9wd8VvGzb6p9ZVJ8JRo780mgAozTVHbfuXR+dUxKesi5rUSduqw9/BQ6cqfn/2+c+8z3n7XdOMsiPWcwgnBqB9ZeZqlM/wQQO1NVA3A6A7Kd1R5XFXNeDpha2VtN5FhxP7qMEYcWW2NRW65qqPagzSrBv8Tst8A5opMM1+UduuXtt2p69UuuHJY2Qy3NkN82i47XwD1mhExZVknUYk2H9IGts/8K+L2vFQtj+bM+DHH39KPLlP3PntfANbtx1pd664feLWj5+4uTV+3fWHJ6JS35JPP9vTuo0MTdyxkq63jXMe5jfunPYctmxY1q7sYAQjNFCpgboZADUKFrZvOtg33mq5g54zb6fRnXlcpfjAI3OCKWM1FNC3N73uZBW/Gj3fPP179h4LjjPwufaNp70WmZgPRq0PHkvrnbVdn2XpTjfsO13vw499EnCQiamWM7/nHVOMJtYRM/UZyBK33cdON6w+Bb5PYBYu2hO8bhkydHXVsf0aPXL23CWjeSZsHFmW7nwDy1b4zVJZ7fwYgMqKzNY1LOGCBpJroG4G4POle1sNgD5Xq8xq/aZHqUk7l3XuNsY7CY3e2etO1gqp34D5XvEro1yXKsbFvX5N16tH6+66tJ81Ft/Gricmafd3t9c79FvumFK18bTby8RoW/s9y1LHcHMmvDtsjdfxdIefdLphTdfrO93wc4Paphu+cOGyd1nGMcQAJK/k7L8FljBDA5UaqIsB0F26cvBb2M02XW84F35RhxbGNQ7qSGjZa9lR6ZDj4qu2Xn0X3Ng1IU+17Yv2W3i64UGv1CcpFQagsiJzNcNn2KCBZBqoiwGIGrKndUWrrOPiCefw1yxyjZ6RLy62Wuujhux9PLZ4QwvjrmPqjK8qDIBeA2hehbjti7Re/V7C0w3Xa2ghBiBZBUdDACc0EK+BzAZA79jVWUtJVvSI/PEnF5jHn1oQTACz7suDFZW4CkDrNDmMttG22kf76hi+7+uzNAK9/jw1OP9jA+a3xt9/4AKjXuDhIXuKX4+i9bviV+zaT/H7vu/OErv20bt5nV9xWPaKT08rwoLXa4Aw+yD+/vOMHntnjSHrfnrN0bd/S+xWO4pdMWoGvnD8GtVh2etaLXv18M8ag89+6lhp2QfxP7UgiC9quKReAzz5zKct8V/RvY1fI1iyxoEBiK/UwvrhO6zQQLQGMhuAKdO3tquos0LWsbJWhFn2U58CdRTMGq+7n8xCHsP20lzHG2+uyCV2Xce69Qcbyl7XuWNn7ZTOLuNqnxs9aZI6mlaLJ81vPxw7l6hvRZQ2MADRFVoa/mwLw7JrILMB0Hvlgwcrx1BngaljdMQ7as345nb0yxK79tGsg+q4FlVJ12udeuMr7W7WmO1+Gro34JmWMfH1ijXquMp9EH5UbmNKs5R56XpjY59g6GmV28E1TbzutsploaGmUXySrMMA0Hi5euIzesiigcwGQJWUeliHOz2lCUL76hhJKrx6bPPo4/Mis8QluYaOnnVQDVHSWfqirqejZx3ULH17vk42S184fhk3DZlstPFyNajGW4/3w7El+a4Mir5JjjAAVPhJtMY26KSaBrwMgK0Q01aGqjh97n7sefNYaojYqtX7U1Xkml5WDVge5/c9hrLanTzZPh1yXKGrU92kKVs7pN9F+Fo7dxtjZs3Znoq90voWJdWz+gIkmSTJLYu8TC8GgIrd1RWf0UMWDeRiAFSx3/2AKsMTNStzbaNtw41BR37XWHelFr58+cea8avBUsPVkfGGz63OZJu2tCThqSYCGQV1SAvv39Hf9UrATfUcdw0yaknH9DfqmpSzYaGTSTAuds39MPjtlbmxxwBQ4cdpjfVoI6kGcjMAqnA/mb+rZgOqbRpVOac5jxL1JJkzXp3A0hy3UduqT0OtQt+562ghYxejJP1JXnqtPmPqfctII0NqsT9zxj87pRsnBoBKvpbm+B2N1NJAbgZA6XI1Xr7WCbWNb2pdtyLM63NU7oKoa9EkL3mdM8/jbNl6uCZ7XY9S9uZ53jyOdff9MxPFXq8x9b7XkPQ1hoY5+p7L7o8BoHKPqp9Yhy7SaCA3A6Bx0UlPrG1tRVaUZdLOjJrJrygx2zg0wU1U7oKo8nhn6OrCxT/y4/bTDUfFroySRZuuVx0RNZwvKt7wujwzSmIAqOjD+uI7mkirgdwMgJ3AxQagntqaiEZ/4eF22tY2Xj7LocPXtpsZMMvxovICfHf4tNFTgajhdnmM+9d7e+Xs/+N1o71ZhKcbVhksWvx18M45nO8gj+l6xVgTPEXNDJiFf3i6YQ1PfPXvy83yld+2a1iVaz/LOdx9NHRw9LiN5saeE72P9Ui/lsmSrO61VCbJQa8sqZjTQOuPBeP+8xkyigGgsnc1x2f0kEUDuRgAdaJT72wbwOHDp42G2NlKV5+1zv6ubbWP/T3L8oGHZwfHU1KZLPu7+6ghs7FpuWjxntbx5UoBPGb8poo77GEfrPU+5yfzdwbnfPm1Zd7H0jS3Nn51ptPMdvb6ZFa272hLvKOOjr4T3qjj24WLl83p0xe8RxNo8iAbu5abNn9X8ZpCo0U0pbTdRlP32mvLurT9JSZN3eJ9LA3FtLFpbL+mpbbDEzUJ1IpVlSYmrxEMGAAqfKs7lmghqwZyMQAa02wDWPT5nsj0sko5q9/sdr7joCdMapvn/dY/T/WqyDXNsOLSdLBxHc369G8zMb4T1Pyhy2hz6lTL0L2VX+zzil2PxNXwKP6tXx0xSnEcbhiVM2DC5C1GQwC13YuOQQhvm+S79rflqGGISfaJ2+bt974IjqWnRHoVENU/5M57pptdu38ItlNnuqht4o4ftd4+1dFTnqjf06zbf+BkEJdGt8R1ENXkUnZyLA3BTHP8uG0xAFT69t8gS7SQVQO5GABlptNjz5dfr303q220bbW55eMqPXf9wUNtWQh978j1CF1zt/fq3b7xdM8pEzN3/k4zfuJmr0pcQ/Fsganxvs4jm52epKxctc+MGh3deLrxK2/9+g2HjG8OffeudsGnu71YqAe9Mvo91Hdu1ePIxIyftNmo4XOvKe3nnrdXPnGIa7STHnfm7O1m+qxtNaf91ZwRMnt6NZD02NW2wwBQ6ds6hCVayKqBXAxAtYqqHr/d91DbEwdd+PYd3+dSqdYj1qhjKn2wW2BJjFPUcTpind6fX7zYli/hdM7D2+p9Te8NX1PBXk9G6n3OehwfA0Cl79YhfEYPWTTQlAZg3IRNFZW4LlzvkutR0eZ9TPfxvy0wJbjJ+zz1Op5ekdi47TKvzoD1itk9rl6T2Li1PHToVNOwd68DA0CF7+qYz+ghiwYKawD0WPyhPnPNw4/NNY889olRb2t1JtS7+AMRkxBNnrbV9Hl8XrCNttV+eqx834OzOqSCV6pgnd/GH8T++Dwz5P3VFQ2QCk2vAfo/tSCIX7Hrem38N/Wa1PD49bhd7BV/mL1eIYSFplcCLnvto30f7DOntUOc23jV+3OP2ydHsh/43KLWfhDuNagjZmv8Dvuo/hT1jj3p8TEAVPiuhvmMHrJooLAGQL3Bs1xQ1D4azpe0Ys1ju7vun1kxaiAqpqTrTp48b37fJZ+hY0mvbdbcHbmx13C7pOfNY7trrx+by0yDKp/Ll38q7JOlJS9OML+Mm8wfDNAAGsisgcIagLymjNUj3+t7TGhoI6TH/EuWfePdiKpnvG8HxyyNqjrGHT161jt+PV7vfd+MhrLX9cp02BEPSY1W1HbzF2qqZ7/hqln4J9lneZc+xnTtwR8M0AAayKyBwhoAVYIa/pV1ylg1AOo13ui7Z7fyfmvIqooOc1GNTNy674+eCR5Lu8dr5GeZpi+c/AJxccatX7Jsr9foBt9rHfD0QnP8RO3U1FHxnzt3ybzyxvKGG5c014wBwPxgANGArwYKbQBUIXbuNsYohWpURR23ThW/GoA0FWq9tr33wVnGjhWPize8Xg1vo59aRF2/7n6HfbgueBQejjHuu0YIyPhEHa/R69R/YuOmdK+SZDhlPBsda9rzYQCo/H0rf/ZHQ4U3ALZiVOrZcFrbqEZow8ZDpiM6ztk4o5Z6L/3p4rYkSFFxa53eOeuRf9EeO6tDoJLmxMVt1+/bf9LI8EQx6Kh1Shr08Vi9EvipZvwymp2vK9ZUz3HcMABU3jTgaMBXA01jAFQRJnkd8PqbKwrVANkKXD3jbUMZt9Sj56I2QAsX1TYwec3xYJnltbyu+3hz6XJb7oI4/h3RXyHrNWIAqPx9K3/2R0NNYwBu6z21ZgOqil2Pz7NWqvXcb7KTMz6uAdJ6DVWrZxxZjq1Ojcr7Xy1u/ZbHHA9Z4qu1j4b51Ypdv3/40frCsY+7NgwAlTcNOBrw1UDTGADN/JekEtc7aE1WE1dxdtR69YhPEr+yBHZUjHHn7T9wYaLYdX2+aYbjYvBZrzTPSdhvz2FiKZ840+yLAaDy96382R8NNY0B0AQ8biWux+WaSEZ58N31+pzXuP+83sXrvXg4RqUv1pS34bnkNe7fd7Ib25DkFX84L4Dep4+dsMlMnfFVu+F2Gnlhz++zzCt2TZZ04cLlCv6Hj5wO5q34eu+xivUqI03T7BO33Tev+O3xwksMAJU3DTga8NVAXQ2AptXVX7jySvtd87a7nbh27jpqlGnPHke9zt1K/vOle1t/s9ukXWoaXU049MRA/9EEGpduDYCuQ6mM9VhdMd3QY0IwSYz9XUtN2pM23vD2mllv5+4fvKfr1dS2rkk5cuRMkI3Rnk8TG2meexu/RjzY37Iuu9ww1nzz7QkzZOhq72P99YXFrbEpxsVL9hr1CVBs6m+hiXxs7FrKVGaN2+6nHBYHDp7MzUzY47pLDACVv2/lz/5oqG4GoOcdU4K7Q43H12e38kr7+bXBK4JKWseaOGVLZKOmDly797RMGaunA0pnm/Y87va6w1WDkEefAtt5Ue/I+z4R3bi//e4X5sLFljtV3Vm7saT9rGs/deWdvW+efqX0tQ2kjFW3m1oaTzcmGTTNZ2C308x37u9pP790ZbrhPPoUaLZCxVVtbL/6XZy4kjNg7fqDXrHrWrdsbXla9f6Itd7HimOHAaDypgFHA74aqJsBGOrMuqbPcRVZkvX9nlxg9ApA+fKrbf/H60YHBiGPRtuO3Vee/m5X7hirnbvab7PmbDfKKhfVeLr7ycSsWXfAvPHWyqrX6e4T9Vk5EGxjPH+h33S9t945xWzddiR4XRF1Lned7p61rW8Og+Urv22NX0MQ3XOk/fzesDXBExZ1Iq227023TjIyOOM8p3rWKwSbhXD7jqNVz1ktnlq/YQCo/H0rf/ZHQ3UzANu2f99aietzrQqtSL9rAiHbgGqpd/VFiq9WLJ/Mb5tu+PTpi95PQ2qdL8/fu1xf+c5+0tTmmq43PN1wvSYUwgBQedOAowFfDdTFAGhqXrcB1edmma5Xjdn4iZsr4l+99kDTGIDfdxltTp2qHLI34JlPmyb+Qa9UTjesBER5Gox6H0tPQFztD/9wXV3ixwBQ+ftW/uyPhupiAIaOWFNRCapC1Lp6V755HV8duNxKPHgNEPHuO6/z5Xmc/gMXVMSu6yji0MK4a44aslfEoYVR8dt+L652dtRpaCEGgMqbBhwN+GogswG4/+HZRu+2lT51zrydZu78nUaPnuct3GUOR6SN1Tr9pm20rfbRvjqGjhVVodZrnXq2vztsTUvsn7TFr4Yybp71desPBg2p4lfscz7ZEeyvNLPXdBvb0PjV0Eyb8VVr/K3sF+wyu3a3dIR0G6GzZy+1Y6/4NbzPt5NgljJSWmedWzFY7Yi99OGO5rDXoFdI+r1VO1fYT5m21dx4y8SGstcrCvUTCHR/Jf5A9wt2mQ2bDrUzX7oGZVFU/Fb3VjuD38k+ZwIGgMrft/JnfzSU2QBMmLwlsrKzlXaapY6VpSHJuo96yZ88WfmYPE287rbq8NXo1xsvv54ss50bZ9zn1R2QOVFTNMfFk3Z9o19v3P3AzNxi1+uNrPkCMABU3jTgaMBXA5kNwB8jxlCnrby1vcZh61hZG/Os+911/4xgrHmWmO0+HTXroBoNTRp0OUF+extr1FKN//U3T2g4e03WFHe3HBVn1LrzFy6ZNzpo3ofnBn1u1LkyKq6k65Sj4fa72nJZpNUxBoDK37fyZ380lNkA2ApLiVayVIbaR/va43TEUlni9Ng5aaXtbrdh03cdPuugxuhHvW5x44z6LOOgMepZ7z7zKKs0s/SFr0FJgmTg8ogj6zFuvXOqcUe6hGOs9l2TJvmaXgwAlTcNOBrw1YC3AVAFqsrwq1Dv52oVoLbVPlkr37z3e+m1pYmmGtY1KZPfR2M25Jau1/dalKNg2Yq2cfPVuOs3PXb2HVvvG7O7/2MD5ldkGqwVv96ly7i5x+ioz3qVNGnq1tZx/7Vil+l99vl8TC8GgMrft/JnfzSUiwFQBazKMKoHd7hS1DbatqMq7bjzKrWwssWF4w1/f+rZYg6pU4bEcKzh73v2HvNOahTHz2f9DT0nBqlzw/GGv/smlPKJsdq+L17JXBiO1/1+4uT5XE0vBoDKmwYcDfhqIDcDoApSPeXdSi/qs7apVpl21G+9Ek43/OzznxUy/inTt9Zkr5z+HfnYP65sZQjPJjBfH4wq5nS9rw1eXpP9jz/+FMz7EMcg7XoMAJW/b+XP/mgoNwNwXfdxRuPloxp9d5220bZpK7x6b++mLnbjDX9Wbvl6x5Ll+Hq0H4416rv6DWQ5fj33UU/+qFjD6+qZWtfn+lZ+0X5GynDs+v764BW5sccAUHnTgKMBXw3kZgD0Hj1c6amxjzIF2tanwq3HvnYCF/cazp5t39NbWfaUba8eMWQ9Zjh1sb2GqPgbPeQyyTVpTL2N2S6jYtdvvhNLJYknzTbKC3DxyiRONnYto+LPY44KGxsGgMrft/JnfzSUmwEId0T7dt8Jo4ZJf/rsVo7a1lZkWZdKvqM7wnff988wqIlg7AQuNk4lqrn2+rFBb/mwien7xDzv+HXXq97seTRoSkZk49ZS75uffu4zc3OvyUajFdzf9u0/4R27ymzR53uCJE5Zy8/uF55uWLGqoVS/AKUFPnOm0oTlUd4aQSAOjz7uX44vvLykgq+GJ7415AujKY0Xfran4jfpSOvttfssMQBU3jTgaMBXA7kYAPXKVsVnGxrd0bk9tfXZvcvTtu7vWSpCO897y3vtj70qVWVks7Gr8Xzmb5Xv+e97aLbZt78tPbCy8GWJ2d1n3Zct/SU+/Mj/vbY699n41cdChsaeSw3siJHrKnIG+E7Xe1vvacH5gvfaPf0y8T382CetsetOesjQ1a2x6xqUZGnTljYTo/wB9tqyLlV+4qXZ/7Iew+7nZo7cveeYCbMd9MqSChMz6OV8nn5hAKj8fSt/9kdDuRgAW4kru161TnL6zWbg0z62Es2y1B2obfT69p/vdSylatWxwo2nG5cMi1K4ajvf/O439Jhg1HjqWHu+PuYVe5cbxgVPL3R3OXR4/Nh+5dO3cxz4vouWobDs3xySPZ2t+Np5I/Z+c9zcff/MSBbKGTDy4y8DE6NUwfrulk2az+oEefTo2SB+jfrwNaKHj5wJ+E+eujV2bL+GvGo6azHLwzzqej8ftdj897oN/MEADaCBzBrIxQAoqcngt1cmSoyjLHDa1icRSuduYyresSqxSppGILytXlMoP32SHvKPP7nA6C98jDTf3ScOahTuvGe61/E0DC2u8XTj0vtqZc/zzZ+vO11rAHzvyNU4qhd9kvkUHnhktvnbi597sXqkX9sTB12Dsvq5jNJ+1rDQPv1rv0qQaVE5hZ8QpD2f3d598mDLguXPrbqEBSzQQG0N5GIAbKXUqKWeJLiFe/SHs0aPuht1ft/zbNjY9khb1zFq9JdNE/sdd0+vYK/ESN0bPCGPD//wcEk1pD7H66h9MQC1Kze3juAzvNBAew00pQFYtPjrikZIBZtHh65GVOa6+1aj6YpRj78bce48zvHhR19WxK7rePu9L5oifj3h+f7omYr4g9cADZ7NMY9ywAC0r8zcf1N8hg8aqK2BwhqAJ5/51Eyd8VUwWdDM2W3TDisVbFTGPr2XD6bqvTLN7YzZ24xeDWjYm+8j77QVth5nq6HU+17FoSmP1X9A8X25IXrK2E8/2xNMF6vOktpekyRp/46Y8EbTMwfsZ24zYh9M3TtvZzClbbgB1T+yg4dOtbCftzPYVvuIvabrVYbFtPx8tteTIBkSsRNDy15T8arTX1SlsGr1/papeqWdOduDMtP+mnCpiFkrxQcDULtyiypr1sENDbRpoLAGYGNo+JpPofm+N07bIOk9r0+87r7Hj5/z6vSWNnZtr4bTjcHns4YoZokh6z4yX1Fj8LNcg4aGqs9K1ljquR8GoK0Sy1K27AM/NPCzKawBaBnDHn23nLTg1DP+veH+eQKyVOQyHVlmSXSvTXkCknTuyxJftX2U/2D+wt3eJqCjpnrWiAc9lXBZpv0cTPX8TDHnfVDZYQBowNJqmu3RTFgDhTUAquTUc1oz74XfmYcvIuq7hryp13i1hq7ev6mH+9YUsyS616HXBb5D1Hyv76VXk8+S6MZ+6rSGg+Yz613Wa+h64zizeEn7viJunHGf1UnTzaWQNYZ67ocBoDKP0y/r0UZSDRTaANgKVOP8o949x13kosV7jIa82f07cqm0weqHEM40GBe7JsVR8piOjNk9t3r979z9Q+K7aaVUziO7oRuDz+c33lpZkaQqjrvWKzeD8g00w4gSDACVfDUt8xv6SKKBpjAAagCuv3lCu5TCUReYR2Y9nwYnbl+9EoiK112nVwa339XYTnNx8brrlbNBHeXcWKM+KzlT0eZJ0HX0vm9GZL7+8DX0G+CXUMplVu/PGAAq+LB++Y4m0mqgaQyAXgfYLILVLrLRnc6SVvTKa18tbv2mpwTq+5D0mI3cLkmnzBWr/Od4qMc1Je2UOeDphYVkH8UEA0BlX6s+4Xc0UksDTWMA+vafV7MB1cUqL35UhdnR6+KGoIULSBPJdHSs4fMrdXGSfhhK06sOhOH9O/r7B6PWJ9KOhjt2dKxJz48BoHIP1x18RxNpNdA0BiCcwU0XqgYn6oKL9hi9cyh1sY05Kv71G/wnu0naiCTdTrkIbMx2qREWdj4Du07LRg+5THINyhHhxqjPUexbMkp+1BQmAANAZR/WNN/RRFoN1NUA9Lx9stFfkkq61jaHvqsc1qVH0jq28qufPds2E6EAvD9ibS7nfKjP3Fw6hA18blFFA6TGc/iH60y37uNNOKvh5cs/mm43jfeOX9PO5jWEUNPzusLSVLpKFvRov3nmu8OnK37T9dQqyyS/a36GPEZBqEOiG7s+KymTRgmMGb+p3ZMNlXmS+Kpto34QGopYbRvf3zAAVPZhXfMdTaTVQN0MgNKuqnHQX5JJdqpViPc+OKu1ElcDqY5+bk9tDbdT73N78Vu/OuJd+SoToY6nx8fVYkvym7IX2tjUeIaHJ7YMt2szMS+/vsz7nGvXHTQyGr5ZEDWaQtP02vjnzNtZ8ZhfDalGXdjfz5y56J09TyMP9HRBw/iS8K22jaYXtrG1zFZZOTxRI0w0o5/dZvykzd7nnDhlS3A8TTxULTaf3zAAVPZWsyzRQlYN1M0AuLOu+VaESu2qCzx48JSJu0OzOQPUcOjPN4Xrws9aGrWv9/rn6d9/4GQQv9LRxr0j7/XnqUbGRdepRtancXCnG/btU6Ce8Yrp1KkL5q8vVDaebowvvbbUaAijttXTAfe3tJ/tO/vzFy7F8kp6TNv3Qq9W4jpY6knMkmUtaYI1bW/SY0dtJ7NrDYXvLJVRx7frMABU+vq3xh8MfDRQNwOgXPI2MOVVtxVXluUtd0wxb7/7RaKx/Q/2mWteecPvDrqz3tlfacx0Db5TuD793GcmSQ9zmZhX31hu7nvIrwH9+9srW9krqU0W5nYfGZZ3318T23ja7bTs1XtqsK2v+XLzDmiaZvccaT8/1Hdu8JooyVMoGZz+A/2men74sbbphn84dq7iSVXa2KttjwGg4rf1K0u0kFUDdTEAqmyPHj3b2gg123S94emGlY2wWmVctN/WfXmwlb2ehtzQc2LTxK8OnK6YdQdfNL7V4gl3VtXolWrbZ/0NA0Cl7/474TN6yKKBuhgAdQ4LB9OnThVh1gq02n7uO21dh3LyV9u+SL8pYZIafZf/4HdWNU38w0euq4j9/PlLuXQGbEQZyfiGM1ZqZsR6nBsDQIXv/hvnM3rIooG6GAA98g8Ho4lh6lER5n3MuNnk7rp/RlPEr9S3YfaagjhvTvU63s5d7YfsFXFoYdT1Rxnfes3miAGgwlrBOeYAABbESURBVA//O+c7mkirgcwGQB3zlLpWQ/A0/eq5c5eM7tY0vjouaYwy3akXv3qVq4OX9lOvcR0rqkKt1zqltv1q25HgPb/iVsxx49pdoLqz1nbaXteqfgLq1d/jtnyGOia93icGLjSarU78FId4Kq447roGy17bib2uW2XXEcZMHSx17kAzFy61sq82X4KuTbEH2hH7sxeN3rH7djBNytxupxEKBw+dCsre6j0Je1c7Aftzl4z6ZyTpm2DP7S4xAFT2bt3EZ/SQRQOZDcALLy9p96g5SwCqGHUst3JrxGf1Cs8Sb3gfNQZdbhjX0Pg1xlyNSDiWLN9Hj9vY0NhVtlFPiLLErpEJapAboRd7Do2wcPu3ZInb7qORB/a4aZcYACp8qyOWaCGrBjIbAFVYGkPtUxke+f6M6ai+AUrWMn7i5sSz9EUBVgc1jYNPW3nnsf2d90w3e74+ltkE6A46j3wDWa/lzSGrIrPxRXGOWqfhenklmUp7DepnEU6OFBVj3DqZ3nAui7QxYACo9OP0xXq0kVQDXgZAlZYqw9WhTHFJTr5y1T7zp5v9M96lrTjD2z/+1AJz7Ni5VA2pHqFrqF34WI3+3rnbGKNOZkl4u9vs2v1Dw++co9jc/cDMRDM8urHrVYAy+GnIZNQxG7VOj+6HDl8bvJZw46v1WTkC8nhtgQGgkq+lNX5HI7U04G0AVOGqMhz2wdrg/X6tE+p9qcaVN6qiTnIeZctbt75t6Fy1a9CIgKJ1CNT4dfXHqBa3/U3JadQHIgmXRmyjPANupkQbZ9RSw0mLNmWvsjoqQVVUvOF1y1d+m0uaZ5ULBoDKPawvvqOJtBrIxQDYhsJN/hMXiLax2xdpqeQ1eiweF7ddr0fvRYrbxqKhfjbGuOWGTcUdDbB7T+3XGc8+H5+J0HLoiKWSDcUxt+v1lCnP2DAAVPZWWyzRQlYN5GoAdHdcK5B9+0/mWhHmVakmnW5YueXzOmeex1m24pua7NWDXrn98zxvHsfqfsvERH0xijpdrxJF1dK9ftecFnnw0jGW3/SU+ddt9/IHAzSABjJrIDcDcMfdlRncqlWIvql186pE3eMkeXqha/JNreueM6/Pyl2gIWnVmNvffFPr5hWzexw3dbGNM2pZz9S6bjxpPyftjPnx2PxGXCzv0seYrj34gwEaQAOZNZCbARgRyuCmClxJXaISu+Qxw17aSrrW9odD09qqs9miz/eYcMOa13S9teJJ87vmGgg3mBphsXrtgXbrleUwzbEbsW1UJ9IVq741SqITvi7l2m9ETEnPofkPwjEqx4GdhMj9bc/eY7nFjgHA/GAA0YCvBnIzANt3tGVwU0IXTYmq9+r602c3yYu2TVrBNmI7zV7nVtRK5/rYgPlBjHrn705Oo+06cvhcFI9wJzqNL+92U8sICw2306gFe315TNcbFUPWdeHphpVcyfJV58ywOZg0ZWuhtDN0+JpWtmKsaak1PbV4DPzroiBhk2WvpeY6yMrK3Q8DQOXvW/mzPxrKxQBoPLat5NR4RvXU1jo3T3rPO6bkUhG6lWLWz2MnbGqNf+nyb1obT3s8mRg1PNbE6H27/a2jlxoOd+Lk+SB+JQd6ffCKdrHplYv7mNp3xrs8r1mvJKx2tm3/3tzWu7KB1AgT9btQ/wVtd+BgsfqQqMFXXBrbr74A4eGJ6t/gPol5f8TaduWThScGgMqbBhwN+GogFwOg8dyqBNUwVhvbr99sZzXtk6Xiq8c+GkuvxvONN9s3nu75Hn9yQZD4aOMmvyl23WP6frbv//VUpVpWPA39s/0citQPQE8o9Lpl3MTNRsmZ4njcff9M8/Xe44HZ+d01HZsDwI1RHV8PfXfKVHs1IRPz7rA1gYnRdbr7Z/2MAaDy96382R8N5WIAVImlyYiXZtusFWSa/XSHr4Y0yT5ptk1yvDy20WP08J1n3HG1bZEaUDX6SVMpp9k27vrzXn/Nn8YGr7mSHDfNtrWOhwGg8qYBRwO+GsjNANSqsPj9o0QGA05wSqIBDACVv2/lz/5oCAPQmQYnSYPDNsXSCQaAypsGHA34agADgAHgyUQTagADQOXvW/mzPxrCADRh5c/deLHuxjuiPDAAVN404GjAVwMYAAwATwCaUAMYACp/38qf/dEQBqAJK/+OuOPknMV66oABoPKmAUcDvhrAAGAAeALQhBrAAFD5+1b+7I+GMABNWPlzN16su/GOKA8MAJU3DTga8NUABgADwBOAJtQABoDK37fyZ380hAFowsq/I+44OWexnjpgAKi8acDRgK8GOt147QjuADEBaKDJNLCty18yzwHuW2mwPw0PGrg6NNBpYM9hVP5NVvlzN16su/FGl8fvOn9kfuraCwPQ9eqohGlMKceO0kCnjx5PNglOoys5zlfuRo7yjy//O655j8afxh8NoAFvDXTaNH0VTwB4AoAGmkgD71z7gvc//I664+C83O2igeJooNPPP/9sXu39AQ1AEzUA3B3H3x1f7Wxu6jzMXOp6GwaAuz80gAa8NRAYgDOHj5se1w7HBGAC0EDBNbC+y8Pe/+i5AyvOHRhlQVl0pAYCA6CnANvnrze9umACrvY7SK6vOZ8e/KHzKDPt2idp/LnrQwNoIDcNtBoAmYBzP5wyb977IXeBBb8LpBFvzkY8a7ndc80Qs7/LPbn9o+/IOw7OzR0vGiiOBioMgEyA/nZ9ttFMe2GKefnPI0zv64aZ7teO4A8GaKBBGuh57XAz8Lo3zegbBpk1Nw8w/9PrfvOv2+7lDwZoAA3kqoFIA2CNAMsWQwQHOKABNIAG0MDVpgEMwJWnHldbwXI9VFZoAA2gATRQTQMYAAxA8Nqnmkj4jUoEDaABNHD1aQADgAHAAKABNIAG0EAJNYABKGGh4+SvPidPmVKmaAANpNUABgADgPNHA2gADaCBEmoAA1DCQk/rEtmeOws0gAbQwNWnAQwABgDnjwbQABpAAyXUAAaghIWOk7/6nDxlSpmiATSQVgMYAAwAzh8NoAE0gAZKqAEMQAkLPa1LZHvuLNAAGkADV58GMAAYAJw/GkADaAANlFADGIASFjpO/upz8pQpZYoG0EBaDWAAMAA4fzSABtAAGiihBjAAJSz0tC6R7bmzQANoAA1cfRrAAGAAcP5oAA2gATRQQg1gAEpY6Dj5q8/JU6aUKRpAA2k1gAHAAOD80QAaQANooIQawACUsNDTukS2584CDaABNHD1aQADgAHA+aMBNIAG0EAJNYABKGGh4+SvPidPmVKmaAANpNUABgADgPNHA2gADaCBEmoAA1DCQk/rEtmeOws0gAbQwNWnAQwABgDnjwbQABpAAyXUAAaghIWOk7/6nDxlSpmiATSQVgOd/nvdBsMfDNAAGkADaAANlEsDnUzXHoY/GKABNIAG0AAaKJcGMAAYIAwgGkADaAANlFADGIASFjouv1wun/KmvNEAGojSAAYAA4DzRwNoAA2ggRJqAANQwkKPcoKs4w4BDaABNFAuDWAAMAA4fzSABtAAGiihBjAAJSx0XH65XD7lTXmjATQQpQEMAAYA548G0AAaQAMl1AAGoISFHuUEWccdAhpAA2igXBrAAGAAcP5oAA2gATRQQg1gAEpY6Lj8crl8ypvyRgNoIEoDGAAMAM4fDaABNIAGSqgBDEAJCz3KCbKOOwQ0gAbQQLk0gAHAAOD80QAaQANooIQawACUsNBx+eVy+ZQ35Y0G0ECUBjAAGACcPxpAA2gADZRQAxiAEhZ6lBNkHXcIaAANoIFyaQADgAHA+aMBNIAG0EAJNYABKGGh4/LL5fIpb8obDaCBKA1gADAAOH80gAbQABoooQYwACUs9CgnyDruENAAGkAD5dIABgADgPNHA2gADaCBEmoAA1DCQsfll8vlU96UNxpAA1EawABgAHD+aAANoAE0UEINYABKWOhRTpB13CGgATSABsqlgU6/jJts+IMBGkADaAANoIFyaaDTzz//bPiDARpAA2gADaCBcmkAA4ABwgCiATSABtBACTWAAShhoePyy+XyKW/KGw2ggSgNYAAwADh/NIAG0AAaKKEGMAAlLPQoJ8g67hDQABpAA+XSAAYAA4DzRwNoAA2ggRJqAANQwkLH5ZfL5VPelDcaQANRGsAAYABw/mgADaABNFBCDWAASljoUU6QddwhoAE0gAbKpQEMAAYA548G0AAaQAMl1AAGoISFjssvl8unvClvNIAGojSAAcAA4PzRABpAA2ighBrAAJSw0KOcIOu4Q0ADaAANlEsDGAAMAM4fDaABNIAGSqgBDEAJCx2XXy6XT3lT3mgADURpAAOAAcD5owE0gAbQQAk1gAEoYaFHOUHWcYeABtAAGiiXBjAAGACcPxpAA2gADZRQAxiAEhY6Lr9cLp/yprzRABqI0gAGAAOA80cDaAANoIESagADUMJCj3KCrOMOAQ2gATRQLg1gADAAOH80gAbQABoooQYwACUsdFx+uVw+5U15owE0EKUBDAAGAOePBtAAGkADJdQABqCEhR7lBFnHHQIaQANooFwa6PTroNcNfzBAA2gADaABNFAuDXQyXXsY/mCABtAAGkADaKBcGsAAYIAwgGgADaABNFBCDWAASljouPxyuXzKm/JGA2ggSgMYAAwAzh8NoAE0gAZKqAEMQAkLPcoJso47BDSABtBAuTSAAcAA4PzRABpAA2ighBrAAJSw0HH55XL5lDfljQbQQJQGMAAYAJw/GkADaAANlFADGIASFnqUE2QddwhoAA2ggXJpAAOAAcD5owE0gAbQQAk1gAEoYaHj8svl8ilvyhsNoIEoDWAAMAA4fzSABtAAGiihBjAAJSz0KCfIOu4Q0AAaQAPl0gAGAAOA80cDaAANoIESagADUMJCx+WXy+VT3pQ3GkADURrAAGAAcP5oAA2gATRQQg1gAEpY6FFOkHXcIaABNIAGyqUBDAAGAOePBtAAGkADJdQABqCEhY7LL5fLp7wpbzSABqI0gAHAAOD80QAaQANooIQawACUsNCjnCDruENAA2gADZRLAxgADADOHw2gATSABkqoAQxACQsdl18ul095U95oAA1EaQADgAHA+aMBNIAG0EAJNYABKGGhRzlB1nGHgAbQABoolwY6/ePwEcMfDNAAGkADaAANlEsDnX7++WfDHwzQABpAA2gADZRLAxgADBAGEA2gATSABkqoAQxACQsdl18ul095U95oAA1EaQADgAHA+aMBNIAG0EAJNYABKGGhRzlB1nGHgAbQABoolwYwABgAnD8aQANoAA2UUAMYgBIWOi6/XC6f8qa80QAaiNIABgADgPNHA2gADaCBEmoAA1DCQo9ygqzjDgENoAE0UC4NYAAwADh/NIAG0AAaKKEGMAAlLHRcfrlcPuVNeaMBNBClAQwABgDnjwbQABpAAyXUAAaghIUe5QRZxx0CGkADaKBcGsAAYABw/mgADaABNFBCDWAASljouPxyuXzKm/JGA2ggSgMYAAwAzh8NoAE0gAZKqAEMQAkLPcoJso47BDSABtBAuTSAAcAA4PzRABpAA2ighBrAAJSw0HH55XL5lDfljQbQQJQGMAAYAJw/GkADaAANlFADGIASFnqUE2QddwhoAA2ggXJpAAOAAcD5owE0gAbQQAk1gAEoYaHj8svl8ilvyhsNoIEoDWAAMAA4fzSABtAAGiihBjr949hxwx8M0AAaQANoAA2USwOdTNcehj8YoAE0gAbQABoolwYwABggDCAaQANoAA2UUAMYgBIWOi6/XC6f8qa80QAaiNIABgADgPNHA2gADaCBEmoAA1DCQo9ygqzjDgENoAE0UC4NYAAwADh/NIAG0AAaKKEGMAAlLHRcfrlcPuVNeaMBNBClAQwABgDnjwbQABpAAyXUAAaghIUe5QRZxx0CGkADaKBcGsAAYABw/mgADaABNFBCDWAASljouPxyuXzKm/JGA2ggSgMYAAwAzh8NoAE0gAZKqAEMQAkLPcoJso47BDSABtBAuTSAAcAA4PzRABpAA2ighBrAAJSw0HH55XL5lDfljQbQQJQGMAAYAJw/GkADaAANlFADGIASFnqUE2QddwhoAA2ggXJpoNO/7nzgnxR6uQqd8qa80QAaQAPl1oDa/k6/DXjuGEIotxAof8ofDaABNFAuDajt7/Tra28tpeDLVfCUN+WNBtAAGii3BtT2d/r1wzG3mG630AGEvgBoAA2gATSABsqggW63GLX9nfTfry/+fR1usNxukPKn/NEAGkAD5dCA2vyg8df/zMiR//7bA33/QeGXo/ApZ8oZDaABNFBODQRt/ciR/95qAPThl1Fj//O3vk+dQxTlFAXlTrmjATSABq5uDaiNV1tf0fjbL2bQoH/7ZfC700z3O3gPVIb3QFwjOkcDaAANXP0a6H6HCdr2QYP+zbb3sct/jB//H78M+6jfP19/e8GvTz9/+Ld+T5/hDwZoAA2gATSABppDA2q71YarLVebHtvg8wMEIAABCEAAAhCAAAQgAAEIQAACEIAABCAAAQhAAAIQgAAEIAABCEAAAhCAAAQgAAEIQAACEIAABCAAAQhAAAIQgAAEIAABCEAAAhCAAAQgAAEIQAACEIAABCAAAQhAAAIQgAAEIAABCEAAAhCAAAQgAAEIQAACEIAABCAAAQhAAAIQgAAEIAABCEAAAhCAAAQgAAEIQAACEIAABCAAAQhAAAIQgAAEIAABCEAAAhCAAAQgAAEIQAACEIAABCAAAQhAAAIQgAAEIAABCEAAAhCAAAQgAAEIQAACEIAABCAAAQhAAAIQgAAEIAABCEAAAhCAAAQgAAEIQAACEIAABCAAAQhAAAIQgAAEIAABCEAAAhCAAAQgAAEIQAACEIAABCAAAQhAAAIQgAAEIAABCEAAAhCAAAQgAAEIQAACEIAABCAAAQhAAAIQgAAEIAABCEAAAhCAAAQgAAEIQAACEIAABCAAAQhAAAIQgAAEIAABCEAAAhCAAAQgAAEIQAACEIAABCAAAQhAAAIQgAAEIAABCEAAAhCAAAQgAAEIQAACEIAABCAAAQhAAAIQgAAEIAABCEAAAhCAAAQgAAEIQAACEIAABCAAAQhAAAIQgAAEIAABCEAAAhCAAAQgAAEIQAACEIAABCAAAQhAAAIQgAAEIAABCEAAAhCAAAQgAAEIQAACEIAABCAAAQhAAAIQgAAEIAABCEAAAhCAAAQgAAEIQAACEIAABCAAAQhAAAIQgAAEIAABCEAAAhCAAAQgAAEIQAACEIAABCAAAQhAAAIQgAAEIAABCEAAAhCAAAQgAAEIQAACEIAABCAAAQhAAAIQgAAEIAABCEAAAhCAAAQgAAEIQAACEIAABCAAAQhAAAIQgAAEIAABCEAAAhCAAAQgAAEIQAACEIAABCAAAQhAAAIQgAAEIAABCEAAAhCAAAQgAAEIQAACEIAABCAAAQhAAAIQgAAEIAABCEAAAhCAAAQgAAEIQAACEIAABCAAAQhAAAIQgAAEIAABCEAAAhCAAAQgAAEIQAACEIAABCAAAQhAAAIQgAAEIAABCEAAAhCAAAQgAAEIQAACEIAABCAAAQhAAAIQgAAEIAABCEAAAhCAAAQgAAEIQAACEIAABCAAAQhAAAIQgAAEIAABCEAAAhCAAAQgAAEIQAACEIAABCAAAQhAAAIQgAAEIAABCEAAAhCAAAQgAAEIQAACEIAABCAAAQhAAAIQgAAEIAABCEAAAhCAAAQgAAEIQAACEIAABCAAAQhAAAIQgAAErnIC/x8+BbUETKaS7wAAAABJRU5ErkJggg==;" vertex="1" parent="1">
          <mxGeometry x="60" y="293" width="10" height="10" as="geometry" />
        </mxCell>
        <mxCell id="JCwLTpMFITTxm-Wv9MS6-19" value="Покупка" style="text;html=1;align=center;verticalAlign=middle;whiteSpace=wrap;rounded=0;fontSize=4;fontColor=#999999;" vertex="1" parent="1">
          <mxGeometry x="97" y="283" width="20" height="10" as="geometry" />
        </mxCell>
        <mxCell id="JCwLTpMFITTxm-Wv9MS6-20" value="Продажа" style="text;html=1;align=center;verticalAlign=middle;whiteSpace=wrap;rounded=0;fontSize=4;fontColor=#999999;" vertex="1" parent="1">
          <mxGeometry x="115" y="283" width="25" height="10" as="geometry" />
        </mxCell>
        <mxCell id="JCwLTpMFITTxm-Wv9MS6-22" value="" style="shape=image;verticalLabelPosition=bottom;labelBackgroundColor=default;verticalAlign=top;aspect=fixed;imageAspect=0;image=data:image/png,iVBORw0KGgoAAAANSUhEUgAAAgAAAAIACAYAAAD0eNT6AAAAAXNSR0IArs4c6QAAIABJREFUeAHtnXmbFOW5/8kf59/zCs6LONeVNyAkOMMiClFR1gEEZhgYGBhm2LdhGxiWYZ8ZFLcQUcRIcA0oRsFdVFCUsPnT5BcTjScuiYmE51zf9tTQ09PVXVVdVV1Vz8frwp7urvVzf+/7/tZT1VWDBvEfBCAAAQhAAAIQgAAEIAABCEAAAhCAAAQgAAEIQAACEIAABCAAAQhAAAIQgAAEIAABCEAAAhCAAAQgAAEIQAACEIAABCAAAQhAAAIQgAAEIAABCEAAAhCAAAQgAAEIQAACEIAABCAAAQhAAAIQgAAEIAABCEAAAhCAAAQgAAEIQAACEIAABCAAAQhAAAIQgAAEIAABCEAAAhCAAAQgAAEIQAACEIAABCAAAQhAAAIQgAAEIAABCEAAAhCAAAQgAAEIQAACEIAABCAAAQhAAAIQgAAEIAABCEAAAhCAAAQgAAEIQAACEIAABCAAAQhAAAIQgAAEIAABCEAAAhCAAAQgAAEIQAACEIAABCAAAQhAAAIQgAAEIAABCEAAAhCAAAQgAAEIQAACEIAABCAAAQhAAAIQgAAEIAABCEAAAhCAAAQgAAEIQAACEIAABCAAAQhAAAIQgAAEIAABCEAAAhCAAAQgAAEIQAACEIAABCAAAQhAAAIQgAAEIAABCEAAAhCAAAQgAAEIQAACEIAABCAAAQhAAAIQgAAEIAABCEAAAhCAAAQgAAEIQAACEIAABCAAAQhAAAIQgAAEIAABCEAAAhCAAAQgAAEIQAACEIAABCAAAQhAAAIQgAAEIAABCEAAAhCAAAQgAAEIQAACEIAABCAAAQhAAAIQgAAEIAABCEAAAhCAAAQgAAEIQAACEIAABCAAAQhAAAIQgAAEIAABCEAAAhCAAAQgAAEIQAACEIAABCAAAQhAAAIQgAAEIAABCEAAAhCAAAQgAAEIQAACEIAABCAAAQhAAAIQgAAEIAABCEAAAhCAAAQgAAEIQAACEIAABCAAAQhAAAIQgAAEIAABCEAAAhCAAAQgAAEIQAACEIAABCAAAQhAAAIQgAAEIAABCEAAAhCAAAQgAAEIQAACEIAABCAAAQhAAAIQgAAEIAABCEAAAhCAAAQgAAEIQAACEIAABCAAAQhAAAIQgAAEIAABCEAAAhCAAAQgAAEIQAACEIAABCAAAQhAAAIQgAAEIAABCEAAAhCAAAQgAAEIQAACEIAABCAAAQhAAAIQgAAEIAABCEAAAhCAAAQgAAEIQAACEIAABCAAAQhAAAIQgAAEIAABCEAAAhCAAAQgAAEIQAACEIAABCAAAQhAAAIQgAAEIAABCEAAAhCAAAQgAAEIQAACEIAABCAAAQhAAAIQgAAEIAABCEAAAhCAAAQgAAEIQAACEIAABCAAAQhAAAIQgAAEIAABCEAAAhCAAAQgAAEIQAACEIAABCwlMGzYw/95U23vTUNu3t8yuKb34OCa3mf5BwM0gAbQABpAA6nRwEH1cPVy9XQPdsb8ZHBtz6zBNb3fDq7pNfyDARpAA2gADaCB1GvgW/X2QYPMT4oagZuG9f7X4Jre4wQ69YHGuGFe0QAaQANooJgGjqvX9zMBP/1p938Mruk9Q/On+aMBNIAG0AAayLQGzqjn95mAwTW96wh4pgNezAnyGUcIaAANoAE7NbAuZwBuGtrz34Nreq9hADAAaAANoAE0gAas0MA19f5BN93cu5SAWxFwnL6dTp+4E3c0gAYGaEC9XwbgCAYAA4AG0AAaQANowB4NqPcPGlzT+wlBtyfoxJpYowE0gAbQgHq/DMCAoQE+gwkaQANoAA2ggWxrAAOAAcIAogE0gAbQgIUawABYGHRcfbZdPfElvmgADXjRAAYAA4DzRwNoAA2gAQs1gAGwMOhenCHTcASBBtAAGsi2BjAAGACcPxpAA2gADVioAQyAhUHH1Wfb1RNf4osG0IAXDWAAMAA4fzSABtAAGrBQAxgAC4PuxRkyDUcQaAANoIFsawADgAHA+aMBNIAG0ICFGsAAWBh0XH22XT3xJb5oAA140QAGAAOA80cDaAANoAELNYABsDDoXpwh03AEgQbQABrItgYwABgAnD8aQANoAA1YqAEMgIVBx9Vn29UTX+KLBtCAFw1gADAAOH80gAbQABqwUAMYAAuD7sUZMg1HEGgADaCBbGsAA4ABwPmjATSABtCAhRrAAFgYdFx9tl098SW+aAANeNEABgADgPNHA2gADaABCzWAAbAw6F6cIdNwBIEG0AAayLYGMAAYAJw/GkADaAANWKgBDICFQcfVZ9vVE1/iiwbQgBcNYAAwADh/NIAG0AAasFADGAALg+7FGTINRxBoAA2ggWxrAAOAAcD5owE0gAbQgIUawABYGHRcfbZdPfElvmgADXjRAAYAA4DzRwNoAA2gAQs1gAGwMOhenCHT2HMEMX7CDtPU2EkDoBagAcs0gAGwLOA0dnsau5dYT5rcZb6/OMGYT8aZnR0raQDUAzRgkQYwABYF20tDYBq7DMKj+9tyzV8G4A9vTaP4Uw/QgEUawABYFGyau13N3Uu8Pz8ztc8AyATMmL6VBkBNQAOWaAADYEmgvTQDprHLIMyq39Kv+csAHOxeTPGnJqABSzSAAbAk0DR3u5q7l3gfyhv+V/PnNAAa8aIbpsmOTjAAGADcvqUa+NM7/Yf/HRMwY/o2NGGpJmju2WnuXmKJASDRKfYWaqChyPC/YwB+uY/TAF6KJ9PY1SyzGG8MgIXFP4tCZp/8FeNDvYsGnP93DMBnb/JrAPTkT0/wSicvDAAGgBEACzXw/12G/x0TMP0eTgPQ1NLZ1Iib97hhACws/iSI9wTJIqv6mQOv/ncav/P68F5OA2Qx9uyT3blfGH8MAAaAEQDLNPBIj/vwv2MAPuU0AHlhWV4UNkcb3mMAEDmFLsUaGFLbY/Z0rjDPPjLfPH9I/5rN8ceazQn9OzzPvPj4PHPyyDzz0hNzze+emGtefrLJ/O3Dya7n/x0DoNfXjs0xL/96bm7ek0fm5pb1wuF5uWVrHb99tDm3zucemW90TcGdd+1CSynWkg0Nj33sPwKCASBhKdplNKAmq/vkd29dbn42rCdRvNqXr/XUzPMbe1R/yywkucAqdoqhYqmYJnlb2bb+jQoe0fDAAJQp/ggvGuGlieuWdav7mqwaSJK2vWXepr5ti6qxe13uE/cvTBSbwjgpds6+KKaF3/OeXLdNAxgADACFsIwGzr3Q0Nc4rr42PXG8NqxqN/+4MLFvG50mF+frsYdbTM3I7sSxyS/oip3DRDHN/46/af42agADUKb42ygK9vlGMbxj7G5z/er4vsahBlJXtz1xzUOP9b10aka/7XSaXZSv3308yaxZti5xPAo1rJjlc1BMFdvC6Xh/Q/uwyD4LDAAGgCJYQgO7Nq3s1zjURO7ftTSRzHQE/uSDCwdsb37jC/Pvj34304yfsCORLAqbl2JWuO+KbeF0vM9+0yPGN2KMAShR/BHKDaHYyuLsiRvD/04DufJq8k4D5Mdn1ZL15tuPJg1oeM72h/F6+N42M3REsof885koZoX7rdjmT8Pf5LttGsAAYAAogi4aKDb87zSRJJ4GyC9e48bvNOdP1g9oes72B339+sPJZknrhlRppnD439l3TgPQ8PNzxsa/MQAuxd9GMbDP/Quifi7mNIvC1wM7lyS+CQ4d3mP0yN/rV3981G/hPvh9//6JBjP27vT91l+xcttXxRjd99c9POzhgQHAAFAAXTSghufWOC6fTvZpgPwivqhlo/nh0gTXfXHbx/zPD9/Xmrh7IOTvY6m/Fav8fcn/WzEuNS/f2dMMbYw1BsCl+NsoBvb5RrG7feyuAVf/5zcO/T15clcqmoeO2gu33e/7ro3pPFJWjErtq04DKNZo/4b2YWEPCwwABoDiV0QDO0oM/zsN5b4dyfw1QGEB97Ivzj65vb7zXGMqdaIYue2T87n4FDLjvT1N0OZYYwCKFH+bBcG+/1j43j/uPvzvNI5LKTkNcOb5xrJN0Nknt9drV8abW8fsSV2jVIzc9sn5XLFG9zR8GzWAAcAAZL743T1up1ET/PzMFPPnd6eYL96bYr48O8V8dW6y+dsHk83X5yflfjb33YWJuTvqfX/R+/lyTau78Gle/fROy9IyvzpXl1uH1qV1at1qNFOmxHsTITXtf1/pfyMjp/H5fe1Y3V5VrYidGA6MY12EcZw8II7SkjRlY8Ngn7NllDAAGIDMF7KD3eUff+u3GQad/umDC2Ll3bFmTdkjYK/7cupoU6zbXthsxM7rtkY9nTRVuH28z1ZztCGeGAAMQOYLWXPTJnPtcjhHwZU0Fv0cb1lbvL+hP320qWzT1MhFsRvlFO6rRjuGjdpXNb2IXVg/aSzcNz/vpSVpyoYGwT5m29RgADAAVhSy2bM6c0PHfgp9mNP+9Wyd0ZP74iyoatb/LHM6Qz+Du2vcztxd/R71cM+AlYvXx7oPhbzEUCzDjI2fZen0g7RUuF28z3ajzGp8MQAYAGuK2agxe8wrT5Y/IvbTELxM+9azjWbMHfE/eEa3BHbbPl3Ud2Dn0gG/7V/Y3GG+LNFgf/toc9X1IpZi6rZvUX0u7UhDWW0G7Jd9JgYDgAGwrqDp7m8/XPZ+oV/QhqKL7/Z3LTNDaqtTWI4/1ly0Sf7x7ammscH9KPa2X+wxbqcOvjk/yegOg9VuFmIqtmFd4FgqxtIKdwysjoarrbOsrx8DgAGoejGvRpLNmL7NfPbmtKINslQz8Prd52emmjmN7k026n1Wky72QKDnD803I271dh5/2/pVptgvIjRKEPX2e12+GIu117j4nU4akVa8bg/TYRTSpAEMAAbA2uI2YtQ+c8LlKNlvo8if/tTROVUfKtYRfv42yQy0L1/rO9Z6kM7FUzP6LetXPcm6Al7D8mKev79h/C1tSCNpKuhsKwbEjwYwABgA6wvc5jVrih7p+m0iGipOyjPmx03YYf71f/f/12NvK/nd+s0jus1j9954qFDXxlWJ1IzYh3FqR6Me0oSfQsq0NN40agADgAGg0NX0mvqZWys+gmxJ0NC4ipHug6+fq/1sWDjn7Ovqusz8uZuqdk2DlwKrGPg1boXTSwte1sU0NP20awADgAGg2NX0muVtGypuHLrpTtoLQtq3P4wbH0kLaefA9mNOvGgAA4ABoNjV9BpdHFd4JOj3va6c95J0TBNdcXb79YKfWEoLxCi6GME2OWwxABgA64vdz4f35O7h76dJFJtWN92p5p3ybC+sXm58VCxuhZ/peQ7ShO082f/kNOqoYoEBwABYX+h0d7nCJhD0vW6+E1WystzSBbnUjY/8xjPuuzYS29KxhU80fDAAGADrG9avH1gYmgHQzXcoVtEUq3Jc3W585Lf5a3ppotz6+L46cYZ7eNwxABgAqwvdkNqe3OOByzUJ/c7cyz0D9Hv7JNwpz7Yi6Xbjo8K4KoZe7hmgxzhLG7ZxZH/Da65pYIkBwABYXeRmNWwpefSv34Rv23Djd+8bVrWb7y5MLDlP6/zk3CkvDUUojG0U88Jmn/9eMVPsnHUppsXucpg/j7ThTM+rXY3RlnhjADAAVhc5Pdc9v+jn/33p1AyjO+EVFoPxE3aY8yfrXec7+hDDx4XMon4v5vmxy/9bsVLMCrdBsVWM86fN/1vaKJyH9xiBLGkAA4ABsLrIffrGPUUbwOMHWo3ugOeW7LpK/OG9i4s+n/7Lsxo+plC6sQv7c7EW8/zmrb+vXx2Xi1GpK/oVY8W6cF69lzbC3laWR14kSQMYAAyAtUVOR4CFhf+rc5NN2wLvQ/jNczabP787sPnwzPj4Cr1YF8ZRMVFsvBZbxVyxL1xOsREgr8tkuvg0AOtgrDEAGADPRTJrSbZxdXu/gv/6U3OMnjXvdz9Hjd5rXnpibr9lJeWZAH73JY3Ti3V+41YsFBO/+6LYSwP5y5JG/C6H6YM1I7jFzw0DgAGwtsDpvPBfz9blLurbtXllxVd9d65dY745P8l8/eFkM23qwGsHKHDRFDixFnOxVwwq4awr/6UFXTQobRS7dqCS5TNvNBqAazCuGAAMQEUFM+2Jp5+PDR3ufq7f7/7pfHOpawf8Lo/pvRU2MS91rt8vR2mCn3N6Y++XLdMnhysGAANgtQGgGCWnGBELYoEG4tUABgADgAFAA2gADaABCzWAAbAw6LjseF02vOGNBtBAEjWAAcAA4PzRABpAA2jAQg1gACwMehKdKNvEERIaQANoIF4NYAAwADh/NIAG0AAasFADGAALg47LjtdlwxveaAANJFEDGAAMQFWd/6HeReby6emmjSfoVTUOSSxOtm6TckE5odywlQH7HY9hwgBgAKpWZGbV33gU7x/fnlq17aDYxFNs4OyNs3LBuR2xcgRu3rjByT8nDAAGoGoF5tH9bX2FTgWvgWJXtVhQPP0XzyiYKQec5q9X5UgU62GZyYh3teOAAcAAVKXA6BGun5+5caSjYneIYleVWFS7CLH+G81IOZBvAJQjPFr6Bh+0Ei4LDAAGoCpNp7Gh/5GOih7FLtzkplimi2cxU6y8UK4Qy3TFMi3xwgBgAKpSXAqH/52jHoodhS4txTPs7SxmipUXnAYgJ8LWmrM8DAAGIHYD4Hako2L32L2c83SSk1e7Cr+07xjh/FdGxuzSQZx5jwHAAMRuANyOdFT0/vzuFM55osnYNRln0S22LpliaT+/8ef/zcgYJqCYbir9DANAsY292LoN/zsFb/aszti3qdJEYn4KdCUakOYd/Rd75TQA+qpEX27zYgAwALE221LD/07hO3xfa6zb5JYcfE7RjUsD0ryj/2KvnAZAi1FoEQOAAYi12ZYa/ncK3xfvcRogimRnmclsIjLF0ryjf7dXTgMkM35pzisMAAagIgMwdES3uWfaNjNj+lZTP2Or0Z3LGhs6zZzGTtM0e7OZN2ezaW7aZBbM3WQWNneY3z7aXLbQqQBu37DKtDR35ObT/FpOU2On0VCpCqFumKL1ab0TJ+6oaB/SnMBsezKbgjTp5IS0Ks1Ku9Jwfk5I49K6W9PP/1y5oxxSLvXlxOzNuVxTzin3nJxQTg4d3kNeUN9LagADgEBKCqRUg7ntF3vMF+/XeSpe+YUsir+fPzQ/8H6U2ke+S2aDTXJcpMUoNO53mcpN5WiSWbFt1c0vDAAGIHCB0JGM36IU1fRfnq0LvB8UoeoWoazxlxaj0rnf5XJBLdoulV8YAAxA4Mapc5cnj8yrerH74dIEs3b52sD7USpB+I4C6lcD0qI06bdZhz39i4/P4ye11PeSdREDgEBKCsRL8dvZsbJqBe8Pb03Lnff0sp1MQzOPSwM6Fy9tht3UvSxP5kM5Gde+sp705hUGAAMQSqHQBU+fvRlvwXvh8Dwz4ta9oWw/RSy9RSypsZM2pVEvTTusaZSDysWkMmG7kpVnGAAMQGjFYsSt+8yJx7xd5V9Jwfv+4gTTuXZ1aNtNUUpWUcpaPKRVabYSzXuZV7mnHMwaP/YnuvzEAGAAQi8Yne1rIit4V1+bbqZO3R76NlNkoisysO3NaVba9dLI/U6TM8Tta8gJarlvDWAAEI1v0Xgp6FOmbDdXXg234D19cIGpvYUjHC/8mSZ5hkbalYb9NvhS0yvHlGvEO3nxTkNMMAAYgMiKR+3IbvPULysveN99PNGsW8FV/mkoKGxj+UYkLUvTpRq7l++UW8oxmJdnDqPijDAAGIDIC8j/e/2eiord/buWRL6NFIjiBQIu0XCRpr00ebdplFPEJprY2MQVA4ABiLSQjJuwo6JCpwL40Uv1kW6jTQnPviajaUjTbs3d6+fKLeKZjHimNQ4YAAxApEVkb+eKigvd9avjzJ137Yp0O9OawGx3+hqAtCxNe230btMpt4h/+uKfpJhhADAAkRaRsycaKi50KoBdG7mxSZIKB9sSvPFIy25N3c/nyi3iEDwOsOs1GAAMQGRFZMwdu831q+NDKXbvPNcY2XZSCCiicWpAWvbT6N2mVW4px+LcdtaVrVzBAGAAIisgW9atDqXQqQBeuzLejBrDk80owOkuwNKwtOzW1P1+rhxDE+nWRDXjhwHAAERWQF5/enbZQvfcI/Nzz0m/fLr8PQM2rmqPbFurmYSs254CLg2Xa/LKBT3FT7lRblrlGPqxRz9hxxoDgAGIpICMvG1vyQcEfXN+kmlftq5v3TUju82RA60lC94rTzb1TR92IrA8imgcGpCGSzV15YBywdkW5YhyxW0ePfhHueZMzys69qMBDAAGIJLi0b58rWvRev/4LDP27p1F17uoZaP56lzx56nrlqfDRnEnQD8JzrTJaQjSrtszAaR5ab9YvJQryhk3E6BcKzYfnyUn9kmNBQYAAxBJ8Th5ZO6AgqVzn/d2LTNDantKrlMXNr3+1JwB86sArly8vuS8SU00totiLO0Wa+LSermL+ZQzyp1i1w8o19AX+gqiAQwABiD04nHziG7z9wv9b3Wqx5Q21G/xtS490/xfl/o/Re35Q82+lhEkKZiHYhqFBqTdfAMgbUvjftalHCp87LZyTTnnZzlMi8alAQwABiD0wnHL6L39bnTyzMEFZnjAoftpU7eb/AsE3+bngKHHi2YQTzOQdh0DIE1L20HYK5eUU86ydFMh5VyQZTFPPLFPKmcMAAYgksKhI5s3n5ltVoQwZK+Loh7as8S88fRsM8vnKEJSE4/tsq/wSrvSsLScf6FfUC0ot5RjfkcRgq6P+bKnWQwABiASA0CxyF6xIKbEFA1kSwMYAAwABgANoAE0gAYs1AAGwMKg4+Kz5eKJJ/FEA2ggiAYwABgAnD8aQANoAA1YqAEMgIVBD+IUmYcjDDSABtBAtjSAAcAA4PzRABpAA2jAQg1gACwMOi4+Wy6eeBJPNIAGgmgAA4ABwPmjATSABtCAhRrAAFgY9CBOkXk4wkADaAANZEsDGAAMAM4fDaABNIAGLNQABsDCoOPis+XiiSfxRANoIIgGMAAYAJw/GkADaAANWKgBDICFQQ/iFJmHIww0gAbQQLY0gAHAAOD80QAaQANowEINYAAsDDouPlsunngSTzSABoJoAAOAAcD5owE0gAbQgIUawABYGPQgTpF5OMJAA2gADWRLAxgADADOHw2gATSABizUAAbAwqDj4rPl4okn8UQDaCCIBjAAGACcPxpAA2gADVioAQyAhUEP4hSZhyMMNIAG0EC2NIABwADg/NEAGkADaMBCDWAALAw6Lj5bLp54Ek80gAaCaAADgAHA+aMBNIAG0ICFGsAAWBj0IE6ReTjCQANoAA1kSwMYAAxAYOdfV7fdLGvbYIaO6A68DApKtgoK8axePOtnbjFt8zvIRWq6Zw1gABCLZ7HkF/exd+80f78w0ZhPxplHehYFWkb+8vi7eo0D9ulnP3tWp7l+dXwuH7euW00+Utc9aQADgFA8CaWwSdzbtSxXbGQAvv5wshk6vCfQcgqXy/v0NyNiGH8Mnz80vy8fL52eTi5S1z1pAAOAUDwJpbCoXzo1o6/gyAS0MvQYiGMhV97H3zzTzvzmEd3m248m9cvHyZO70CO1vawGMACIpKxICgvkpMld/YqNDMDTBxf4Xk7hcnlP80MD/jWwpHXDgHy8b8dS8pHaXlYDGABEUlYkhUVZxUVNP/8fpwH8F+5CrryHYRAN5A//OznJaQC05EVLGAAMgG8DcPn09H7N3yk6nAag6HgpOkwTnk6KDf87+chpgPA4Z1WzGAAMgC8DUFc3cPjfKTicBqDgZLVQJnW/ig3/O/nIaQDysZxuMQAYAF8G4P5dA4f/nYLDaQAKTrmCw/fhaqTY8L+Tj5wGCJd1FrWLAcAA+DIAV18rPvzvFB1OA1B0slgok7hPpYb/nXzkNAD5WEq7GAAMgGcDMHXq9qLn/p1io1dOA1BwShUcvgtPH6WG/52c5DRAeLyzqF0MAAbAswF4cM+SsgaA0wAUnCwWyiTuU6nhf8cAcBqAfCylXQyApQZgSG2P2d+1zLzyZJM5/Zs55rVjc8zrT882bz4z27z1bKN557lGc+b5Web947PM2RMN5oMXG8w35/vfbMQpMoWvv39lhjn3QoN5/0SDefe3s8yZ5xvN2881mreemW3eeHq2ef2pOebVY3PMqaNN5plfzTfTpm3zbEJKiZnvKHZp1UDtLfvMr3oW5XKiWD4qh5RL+fn4/cUJZQ25cvPDk/W5HNa8xfJRua91Kh+PPrjQ3HnXLvLRkr6AAbAk0IWFUQ/xKWzc1Xovs1C4fbynmdukgb1blicmH2XKbWJv875iACw1ANPv2WauXfnx4SHVavzOeik4NHubi7D2fcnCjYkxAHrOh+3xsGX/MQCWGgAJvKW5w/z1bF1VC8+xXy4wtSN5nLAtBYf9dDd7a5evNd99/OMTNh1zHOfrv6+MNwd2LjU6PUic3OOUJTYYAIsNgIQ85o7duXP+cRYarUuFrn35WgqN5frLUjENY18mTtxhLrzc/0FbceTmX96bYubO3kw+WpaPGADLAl6sSMnxa9hPRwBxFJsLL880EybuoNigPTRQRAP6ff+RA62x5KLyXRcB3vaLPcSiSCyK1cssfYYBsDDobgJuauw0n5+ZEmnhefxAqxk6giF/txjwuR1Dr17ivLxtg/na4y9vghj3Hy6PN3s7V5ghtTD3Eo8sToMBwAD0c/6jxuwxp482hW4CdH8A/fIgi0nEPtFAotLA2Lt35n6CG6TBl5rnj29PNQ31W8hHy+s/BsByAbgVrl2bV5gfLnn7nXGpQqPv9DM/FTK3dfE5DRQNuGvg58N6zMHuReb61f6P4C6Xd27fnzwy14y8bS/5SO03GABE4FoI6mdsNd997O3mP27F5jcPtRgVMAq8e4GHDWy8aEDP2ajUBOzbupxcpOb3aQADgBj6xFBYhEbfvqfiCwN1d7PC5fKehocG/GtHD50HAAAdd0lEQVRgxvRtFZ+a61izhnyk5vdpAAOAGPrEUFiUN61ZU3HB+fTNaa7LL1wf7/03BZjZw8zLszjcRuKcz3V9D5qxRzPlYo0BwAC4FgTdr98pHJW86imC5YTI9xQlNFBaA1deLf0obi85+s+LE8zwUfvIR+p+TgMYAIRQtBioSPwrpIsAeSRp6cJO44NPOQ3oBkFeGryXaVYtWVc058ttA99nT6cYAAxA0WKweum60AqO7mxG8che8SCm8cW0e2t4Dws68Vgz+Ujdz2kAA4AQihaDE4fnlTUAukmJHjHq5ajjrnH8DJCGGV/DzBrrD16sL5tnf353iqfbCOuXPdyMCy0qRzAAGIABBkDFodzP//RccT03XHcR2715RdnTBbqvQNaKMvtDEY1DA7ffubvsz//02/5Ro/eaocN7jH55c/1q6dt6t83vIB+p/RiAOBI4betoW+D+aFLdPrR3+7IBTwy7Z9o2c/U194uU3js+i4JDwUEDATSwbf0q16P/f1yYaPRrncIaM3/uJqMH/LiNzun+HIXz8N4+Q8sIQICEzHqiHHu4pWjh+OzNaaZ+pvvtQ/VY3yfuX1h0Xh2R6L4CWWfH/tlXRKOO+VvPzC6aUx/9bqbRxYFu69dtvV/+9dyi8+ox4Dz2F61iADAA/QqIisJX5+oGFI1nDi7w/POhxS0biy5jc/vAIxW34sXnFCc00GtuGb3XaNQt/0heZvpg9+LccL8XRp1rV5vvfz+x3zK0vDmNnf1y38uymCZbeYkBwAD0KwJTpmzvVyh0oV+Qnw2NuWO3ef2p/vcReO6R+f3WRTHJVjEhnuHHU2Y6v/nrQr/mps2+82jS5C6jx3DnL0uPACdm4ccsTUwxABiAfkVAzwX/nw8m5wqFLvQbe/euft/7FffOjpVGNx9R4dGjR/3Oz/R2Fyjb419X19X3UK6XnvjxQr+gTHSB4CO5CwR/fKjQysXryUfL6z8GwHIBFCsmOlevc/1hPSd89O27Q11esW3mM4xCVjVw97idZtq0baE167CXl1XuNuwXBgADEFphsSFh2EeMBhpAA1nRAAYAA4ABQANoAA2gAQs1gAGwMOhZca/sB0diaAANoIHgGsAAYABw/mgADaABNGChBjAAFgYdxxzcMcMOdmgADWRFAxgADADOHw2gATSABizUAAbAwqBnxb2yHxyJoQE0gAaCawADgAHA+aMBNIAG0ICFGsAAWBh0HHNwxww72KEBNJAVDWAAMAA4fzSABtAAGrBQAxgAC4OeFffKfnAkhgbQABoIrgEMAAYA548G0AAaQAMWagADYGHQcczBHTPsYIcG0EBWNIABwADg/NEAGkADaMBCDWAALAx6Vtwr+8GRGBpAA2gguAYwABgAnD8aQANoAA1YqAEMgIVBxzEHd8ywgx0aQANZ0QAGAAOA80cDaAANoAELNYABsDDoWXGv7AdHYmgADaCB4BrAAGAAcP5oAA2gATRgoQYwABYGPUmO+dgvF5g/vzvFrFy8ngKEFtFATW8uF5QTyo0k5SrbEvxIO6nsMAAU3aoVmabZm435ZFzunwrekNrsJVhSE5/tSqbWlAPKBScvlCPEKpmxykJcMAAYgKoVmCMHWvsKnQrenMbOqm1LFpKZfUh/o1AOOM1fr8oR4pr+uCY1hhgADEBVCsyQ2h7zxXs3jnRU7B6n2FUlFkktTjZul3Ig3wAoR5QrNrJgn6M3PhgADEBVikv+8L9T8Ch20Sc8RTW5jIuZYuUGpwGSG7O05xMGAANQFQNQOPzvmIC5nPOsSjzSXsiysP3SvpMH+a+cBsAARKVvDAAGIPaG43ako6L3xP0LY9+eqJKL5VK4/WhA2s9v/M7fjIyhIz868jMtBgADEHvDLTb87xS7L8/Wcc4TTcauST9FM4ppZYqlfScPCl85DYAJiEJ3GACKbezF1m343yl6zU389CmKZGeZyW0i0ryj/2KvnAZIbuzSnFcYAAxArAag1PC/U/iefJDTAGkuKmy7/2YlzTv6L/bKaQD/TNFheWYYAAxArAag1PC/U/i+OldnfjaMnz5RwMoXsCwwktaleUf/bq+cBrBDD3FqGgOAAajIAIy4dZ+ZN2ezmT93k2mZt8m0zu8wbQs2msUtG82S1g1mWdsGs3zR+tztTVcvXWde/vXcsoVOBbB3+zKzasm63HyaX8tZsnCjWdSy0bTN7zALmzty69N662du4boBdFyRjsMsuhrlkiadnJBWpVlpVxrOzwlpXFp3a/r5nyt3lEO6bXZfTrRuyOWack65pxzUepWTys0w94tlZc+AYAAonIGLxO137jbfnJ/kqXjlF7Io/n7lyabA+0Fhy15hq2ZMpcUoNO53mcpN5Wg1WbDuZOcWBgADELhANBXcttRvgQpz+r+8NyXwflCkkl2k0hYfaTFMbVeyrFn1W8gLaryrBjAAiMNVHF4K77GHW6pe7P5xYaJZ2rqhov3wsq9Mg1HwogFpUZqspHGHMa9y08v2Mo29usYAYAAqLhIbVrVXreBdOj3dTJ7cVfE+UATtLYJRxF6alDbDaOR+lyHzoZyMYr9YZrbyBAOAAQilUExSwTs1I9aCd/ShFlMzsjuU7aewZauwJSGe0qY06reBVzK9clC5mIT9ZxuSn1MYAAxAaMVCBa/c75krKW7OvN9+NCn3CwEKTPILDDHqzWlVmnX0G9Wrcg9DTE74yTkMAAYgNAPgCG/VkvUmqoL30Uv1ZtyEHaFvs7PtvFJAo9CANCvtRtH8fzTE68kJarlvDWAAEI1v0XgpkOPG7zTnT4ZX8K5fHWce3d9mhg7nBkFe+DNN8oyMtCsNS8thGQHlmHKNeCcv3mmICQYAAxBZ8VDBOxRCwfvbh5NzN1BJQ0KxjRTichrQzYCk6UpMgEyEcgtDjN7K6a3U9xgADEBkBsAR3qdv3FNRsXtg95LIt9HZVl4pqHFoQJquxAAop+LYTtaR7XzAAGAAIi0kuiK5kkKneX//yoxIt5Eil+0il8T4StOV5gVX+6PbSrWNAcAARNpce7Z5u895uWJ49zjOc1aa7MyfjIYhLZfTu5fvlVvENBkxTWscMAAYgEiLSFgXAu7evCLS7UxrArPd6WsA0rKXBl9uGuUW8U9f/JMUMwwABiCyInLH2F2hXfH8/vFZkW1nkhKSbcl+QZeWyzV3L9/rQkDlGJrJvmaiijEGAAMQWQHp2rgqlEKnYnj96ngz+naebBZVIWC58TQRaVha9tLgvUyjHCN28cQui5wxABiAyArI2881li10jx9oNXV1280HL5a/Z0Bn+5rItjWLyc0+Ja8xSMPlGrtyQTmh3Cg3rXKMOCcvzmmJCQYAAxBJARk1Zo+5dsX9SOevZ+tM24KNfev++bAe8+CeJebfJeZ57dicvunTkmBsJ8U5XwPSsFtTl/aVA8oFZx7liHLFbR7lmHLNmZ5X9OZHAxgADEAkxWPjqnbXovXqsTmuw/lNjZ3mT+9MLTrvD5cmmBG37otke/0kDdNSZINoQNqVhos1c2le2i+2XJ02UM4Um0+fKdeKzcdn6LScBjAAGIBIiscrTzYNKFjfX5xgvJyzHHnbXnPi8LwB86vYtS9bF8n2lksUvqeYVqoBabdYE5fWpflyy1fuKIcKl6FcKzcv36PfYhrAAGAAQi8eeiJZYaG6eGpG7rxmMRG6faZnmn/38cR+BU/F0m16PqfIJVkDhaZW2pbG/Wyzrg1QLuWbAOUaTwFE+3505EyLAcAA+CpAjnBKvepoxrnSWT9VeuzeNnPziO5A69FT1D7Me6jQm8/MDrScUtvLdxTPODQg7TqNW5oO+lRL5ZJyynmokHJtxK3lRxDi2EfWka5cwgBgACJpqB2r282Lj88zC+Zuqnj5uihqb+cK88LheWbatG0VL48ila4ilZV4SbvSsLScf6Ff0P1TbinHlGtBl8F8ducCBgADQPFAA2gADaABCzWAAbAw6Lh+u10/8Sf+aAANSAMYAAwAzh8NoAE0gAYs1AAGwMKg4/5x/2gADaABNIABwADg/NEAGkADaMBCDWAALAw6zh/njwbQABpAAxgADADOHw2gATSABizUAAbAwqDj/P07/7vu3mkmTNxBkUx5viiGiiU54D8HYJY9ZhiAlBc0kjL6pGys32KuXR6fu7thS3MHzSOlOaPY6a55iqViSu5EnzswTjZjDEBKixmJFV9i5d/D/fWneCRxWrWn2Dm34uWZEvHlT1r1YsN2YwAwABwJldBA7chu8/e8BxL9cJnnr6exMI4as8codo4BUEwV2zTuC9uMeQlLAxiAEsU/LMgsJ70Ju7xtQ1/TcJpHx5o1NI6U5Y1i5sTPeVVsyc305iaxqzx2GICUFTJEX7no/TDMH/53GgenAeKNgZ94uU2bP/zvxJHTAOmLo1t8+TxYLDEAGACOglw0oGes5w//O40jdxpgNI9fTUvRHTV6b7/hfyeOiq1inJb9YDuDNTm4uXPDALgUf0TjLhpb2BQb/neaB6cB0qOPYsP/Thw5DZCeONpSd+LcTwwABoAjIBcNnHisecB5Y6dxvP7UbLi5cIuzgHlZl2LlxK3wVTH2sgymwShkUQMYgJQUsSyKL8n7pKHh7y5MdG0cnAZIR0NwG/53jIBizGmAdMQyyfUirduGAcAAcARURAPLF613bf5O8+hY3Q67IuySVAwVIydebq+KdZK2mW3BkMSlAQxAwgtYXEJgPf2LzvESw/9OI3mNmwIlvnEqRk683F4Va/TfX//wsIMHBgADkPnid/OIbrNtwyrzq55F5lDvIvPo/jZz+N5W8/iBVvPEAwvNkw8sNEcfWmiOPbzAPHVwgXnm4ALzjxLD/04j0WkATat5NK+WoWVpmUcOtObWoXVpnVr3jo6VZvit+zLPO6rmIXZiWBhHsXaLY/7Nf5y4Fb4q1m5xlEaklfw4SkvSVFT7yXLtaL5JiDMGAAOQ+UK2t3NF2aPAwqYQ1Xs1ryQkfhq3Qeyiiovf5UpTaWTINmMu8jWAAcAAZL6QdW1cmZjGcd+OpZnnnV9gwvxb7Pw26qiml6bC3DeWRWOuhgYwABiAzBeynw3rMY/tb8s9CS6qhuBlub95qMUMHc7QcdBCJ3Y61eKFdVTT6GmC0pI0FXQ/mI9mnxQNYAAwANYUssUtG8z/fDA59gby7UeTzOql66zhHHVxE0sxjarJuy1X2pGGot4/lo9BiEsDGAAMgFUF7Y6xu827v50VW/M4f7LejBu/0yrGcRQvMRVbt2Yd9ufSjLQTx76xDgxAXBrAAGAArCtqGr69f9dS8+8rNx4PG3bD0FCxrv4fOjz5Q8VNszeb9SvXmp+nbFhbbMVYrMOOn7M8aURaYcifphxXU45zPRgADIB1BsBJsHlzNpu/vFcXevP46lydaVvQkQqu9TO29hmhB3YvScU2O/FzXsVazJ2mHdartCGNOOvhFROQNQ1gADAAVhe4236xx7x6rCm05nHm+UZz+53pGSo++uDCvn3/4r0pZkht8kcsihVhMRf7sJq/NCFtFFsXn2EEsqIBDAAGwPoip6YXxr0CHti91AypTU9x1LB24ZGzTgektbiJvWJQqQmQFtJqhNIaO7a7OnUDA4ABSG3BD7NozGrYUnHjaJ2fjmF/h9v8uZsG7LPuqud8n8ZXxaBSAyAtpHHf2ebqNNE0c8cAYAAodjW95mB35XeZ062A01QMjj7UMqBZpvk0gNgrBpUaAGkhTXFkW2n8QTWAAcAAUOxqes2nb9xTceP48mx6zqEXG/53GmdaTwNo2F4xcPYj6Ku0ELSgMh/NOE0awABgAKwvdnV12ytuGk6zmT2rMxU8iw3/O/uQ1tMAYu/sQ6Wv0kSaCjnbivEIogEMAAbA+kK3v2tZaI3jkd50DB8XG/53mmZaTwOIvbMPlb5KE0EKKvPQiNOkAQwABsD6QvfRS+XvKPf1h5PNX8+W/635Z29OSzzPUsP/TuNM42kAsXe23+1VMVQs3b53Ppcm0lTI2VaMRxANYAAwAFYXurF37yzbDPT7ct0GdvTtuz3dM2Dq1GQPH5ca/ncaYNpOA4i5s+1ur/ptv2KoWHq5Z4C0EaSoMg/NOC0awABgAKwucjs63B8V/MPl8aZn2/IBv+3v2rDK/PPiBNeGk/RH/pYa/neaZ9pOA5R6VLBipZjlF2XdM0CxVYydfS58lTby5+FvGnvWNIABwABYXeTcjgR1JfjMGVtd2UyZst1cOjWjaPO48MpM1/nCLiA1I7uNjtbfOz7LvH+iwZx7ocF88GJ97kE5H/1uprnw8kxz8dQMc+n0dHPl1enm6mv3lDQv+U1QQ+pXX5uem1fLuPDyDPPx72YaDY9/eLLefPBiQ26dWvfJI3NNNUc+xDx/252/FSPFyo27Yuz2CxBpw20+PscMZEEDGAAMgLVF7tZf7Om7D77TMPT61MEFZtiofWW53Dyi2xy+r7Xow2juimn4eHP7mqKNL39/4vr7jadnl2UWRdEU68J91AOCFBvFqNw6FWvFvHAZehCQNFJufr7HDKRVAxgADIC1BW7VknX9ir4uDlu5eL1vHm0LNg64QLBz7RrfywlSRBrqtxQ1MYXNLI73D+2pzsOExDp//3Shn2Lil6diX3iBoDTidzlMjyFIiwYwABgAawtc/sVwGu69865dgVmMvr3/Q4VWLPJvJIIWjeamTeaL98v/QiG/SYb597Ur441+Nlet5yCItbM/P17oF/yoXRrIPy0ktkHjwnwYgaRrAAOAAbC6wLU0d5glrRtCa166F72WF3fiy4BoCN5phHG9fn5mipnTWP2bH4l5WM9ikJHR8hbMpfnHrWPWF69pwgBgAGJvViR5NEnuXNmuI/I4DMCpo01m1JjgR9voIBodwBWuXjWAAcAAYAAypoHGhk7zp3emRmYCfrg0wezaxE/kvBZZpqMhJ1UDGICMFf+kCo3tircIjhq917z867mhm4A/vDWt5M8jiXO8cYY3vCvRAAYAA8AIQIY10LVxpfnXJfebFvk5VXDi8Dwz4ta96CXDeqmkmTBv+swIBoBkpqBnXAMzpm+r2AT0bufhODS49DU4YlY6ZhiAjBd/EqB0AtjAZ+KkropPBXRvXY5RpFaggYxpAAOQsYDa0NDYR3+mpmdb5Y871q1/4e6PO7zglXQNYAAwABT2jGvg/Mnyjzsudy3A9avjzO1jg98oKemFkO2jWduoAQxAxou/jaJmn28U8zvG7jJq3uUavJfvtxc8UQ/ONzjDAhZp1AAGAAPACECGNdC1cVUozV8G4a1neTpeGos824w5cdMABiDDxd8t6HxuT0F4+7nGsgZANw1665nytxHWHQZ1fwH0Y49+iHW2Y40BwABQ0DOqATXrcrcF1m/7R972Y1Pf0bHS/PNi6XsGrF/Zjl4yqheafbabfbH4YgBIZgp6RjWwYVW769H/dx9PNPq+sChMm7rdXD493XU+3V2wcB7e29c4iHk2Yo4ByGjxJ0GzkaCVxPHlJ5uKNvIPXqw34ybscG3kNSO7zZEDrUXn/f73E03tyG7XeSvZXuZFs2ggXg1gADAAFPMMaqD2ln3m+4Lh/H9fGW8e3LPE/HxYj6eYL2rZaL46VzfACCxvi/9xxzSGeBsDvO3gjQHIYPEnee1I3lJxbmrs7Ne4daFf0+zNnhp//nLH3LHbvP7UnH7LOrS/zfdy8pfJ3+gTDSRDAxgADADFPIMa0E17vjk/Kde48y/0C1J4h9T2mp15FwiuXb4WzWRQM0G0wTzJaORB44ABIJEp5hnVwC2j95Y81++3aIS9PL/rZ/p0Nxvil7z4YQAyWvxJtuQlGzEhJmgADSRJAxgADAAjAGgADaABNGChBjAAFgY9SQ6UbeGICA2gATRQHQ1gADAAOH80gAbQABqwUAMYAAuDjtuujtuGO9zRABpIkgYwABgAnD8aQANoAA1YqAEMgIVBT5IDZVs4IkIDaAANVEcDGAAMAM4fDaABNIAGLNQABsDCoOO2q+O24Q53NIAGkqQBDAAGAOePBtAAGkADFmoAA2Bh0JPkQNkWjojQABpAA9XRAAYAA4DzRwNoAA2gAQs1gAGwMOi47eq4bbjDHQ2ggSRpAAOAAcD5owE0gAbQgIUawABYGPQkOVC2hSMiNIAG0EB1NIABwADg/NEAGkADaMBCDWAALAw6brs6bhvucEcDaCBJGsAAYABw/mgADaABNGChBjAAFgY9SQ6UbeGICA2gATRQHQ1gADAAOH80gAbQABqwUAMYAAuDjtuujtuGO9zRABpIkgYwABgAnD8aQANoAA1YqAEMgIVBT5IDZVs4IkIDaAANVEcDGAAMAM4fDaABNIAGLNQABsDCoOO2q+O24Q53NIAGkqQBDAAGAOePBtAAGkADFmoAA2Bh0JPkQNkWjojQABpAA9XRgAzAJ8CvDny4wx0NoAE0gAaqpIFPBt10c++RKq2cISdGH9AAGkADaAANVEED6v0yAEsxADhQNIAG0AAaQAP2aEC9f9BNQ3v+e3BN7zUCb0/giTWxRgNoAA1YrYFr6v2D9N/gmt51iMFqMTAEV4UhOHKOnEMDaKBKGliXa/76309/2v0fg2t6z1RpQ2g+NB80gAbQABpAA/Fo4Ix6fp8B0B83Dev9r8E1vccxAThSNIAG0AAaQAOZ1MBx9fp+zf/GG/OTwbU9swbX9H5L8DMZfBx2PA4bznBGA2ggSRr4Vr190CDzkxv93uWvYcMe/s+bantvGnLz/pbBNb0HB9f0Pss/GKABNIAG0AAaSI0GDqqHq5erp7u0ez6GAAQgAAEIQAACEIAABCAAAQhAAAIQgAAEIAABCEAAAhCAAAQgAAEIQAACEIAABCAAAQhAAAIQgAAEIAABCEAAAhCAAAQgAAEIQAACEIAABCAAAQhAAAIQgAAEIAABCEAAAhCAAAQgAAEIQAACEIAABCAAAQhAAAIQgAAEIAABCEAAAhCAAAQgAAEIQAACEIAABCAAAQhAAAIQgAAEIAABCEAAAhCAAAQgAAEIQAACEIAABCAAAQhAAAIQgAAEIAABCEAAAhCAAAQgAAEIQAACEIAABCAAAQhAAAIQgAAEIAABCEAAAhCAAAQgAAEIQAACEIAABCAAAQhAAAIQgAAEIAABCEAAAhCAAAQgAAEIQAACEIAABCAAAQhAAAIQgAAEIAABCEAAAhCAAAQgAAEIQAACEIAABCAAAQhAAAIQgAAEIAABCEAAAhCAAAQgAAEIQAACEIAABCAAAQhAAAIQgAAEIAABCEAAAhCAAAQgAAEIQAACEIAABCAAAQhAAAIQgAAEIAABCEAAAhCAAAQgAAEIQAACEIAABCAAAQhAAAIQgAAEIAABCEAAAhCAAAQgAAEIQAACEIAABCAAAQhAAAIQgAAEIAABCEAAAhCAAAQgAAEIQAACEIAABCAAAQhAAAIQgAAEIAABCEAAAhCAAAQgAAEIQAACEIAABCAAAQhAAAIQgAAEIAABCEAAAhCAAAQgAAEIQAACEIAABCAAAQhAAAIQgAAEIAABCEAAAhCAAAQgAAEIQAACEIAABCAAAQhAAAIQgAAEIAABCEAAAhCAAAQgAAEIQAACEIAABCAAAQhAAAIQgAAEIAABCEAAAhCAAAQgAAEIQAACEIAABCAAAQhAAAIQgAAEIAABCEAAAhCAAAQgAAEIQAACEIAABCAAAQhAAAIQgAAEIAABCEAAAhCAAAQgAAEIQAACEIAABCAAAQhAAAIQgAAEIAABCEAAAhCAAAQgAAEIQAACEIAABCAAAQhAAAIQgAAEIAABCEAAAhCAAAQgAAEIQAACEIAABCAAAQhAAAIQgAAEIAABCEAAAhCAAAQgAAEIQAACEIAABCAAAQhAAAIQgAAEIAABCEAAAhCAAAQgAAEIQAACEIAABCAAAQhAAAIQgAAEIAABCEAAAhCAAAQgAAEIQAACEIAABCAAAQhAAAIQgAAEIAABCEAAAhCAAAQgAAEIQAACEIAABCAAAQhAAAIQgAAEIAABCEAAAhCAAAQgAAEIQAACEIAABCAAAQhAAAIQgAAEIAABCEAAAhCAQOYJ/C/XpoLWnWKlqAAAAABJRU5ErkJggg==;" vertex="1" parent="1">
          <mxGeometry x="60" y="303" width="10" height="10" as="geometry" />
        </mxCell>
        <mxCell id="JCwLTpMFITTxm-Wv9MS6-23" value="" style="shape=image;verticalLabelPosition=bottom;labelBackgroundColor=default;verticalAlign=top;aspect=fixed;imageAspect=0;image=data:image/png,iVBORw0KGgoAAAANSUhEUgAAAgAAAAIACAYAAAD0eNT6AAAAAXNSR0IArs4c6QAAGIZJREFUeAHt16FtXFEURdHXhsMtt2IckgLSmiU3YOLUkAKCU8Ggod8yHOl0sNdIQz7cd4HzzvFTQAEFFFBAAQUUUEABBRRQQAEFFFBAAQUUUEABBRRQQAEFFFBAAQUUUEABBRRQQAEFFFBAAQUUUEABBRRQQAEFFFBAAQUUUEABBRRQQAEFFFBAAQUUUEABBRRQQAEFFFBAAQUUUEABBRRQQAEFFFBAAQUUUEABBRRQQAEFFFBAAQUUUEABBRRQQAEFFFBAAQUUUEABBRRQQAEFFFBAAQUUUEABBRRQQAEFFFBAAQUUUEABBRRQQAEFFFBAAQUUUEABBRRQQAEFFFBAAQUUUEABBRRQQAEFFFBAAQUUUEABBRRQQAEFFFBAAQUUUEABBRRQQAEFFFBAAQUUUEABBRRQQAEFFFBAAQUUUEABBRRQQAEFFFBAAQUUUEABBRRQQAEFFFBAAQUUUEABBRRQQAEFFFBAAQUUUEABBRRQQAEFFFBAAQUUUEABBRRQQAEFFFBAAQUUUEABBRRQQAEFFFBAAQUUUEABBRRQQAEFFFBAAQUUUEABBRRQQAEFFFBAAQUUUEABBRRQQAEFFFBAAQUUUEABBRRQQAEFFFBAAQUUUEABBRRQQAEFFFBAAQUUUEABBRRQQAEFFFBAAQUUUEABBRRQQAEFFFBAAQUUUEABBRRQQAEFFFBAAQUUUEABBRRQQAEFFFBAAQUUUEABBRRQQAEFFFBAAQUUUEABBRRQQAEFFFBAAQUUUEABBRRQQAEFFFBAAQUUUEABBRRQQAEFFFBAAQUUUEABBRRQQAEFFFBAAQUUUEABBRRQQAEFFFBAAQUUUEABBRRQQAEFFFBAAQUUUEABBRRQQAEFFFBAAQUUUEABBRRQQAEFFFBAAQUUUEABBRRQQAEFFFBAAQUUUEABBRRQQAEFFFBAAQUUUEABBRRQQAEFFFBAAQUUUEABBRRQQAEFFFBAAQUUUEABBRRQQAEFFFBAAQUUUEABBRRQQAEFFFBAAQUUUEABBRRQQAEFFFBAAQUUUEABBRRQQAEFFFBAAQUUUEABBRRQQAEFFFBAAQUUUEABBRRQQAEFFFBAAQUUUEABBRRQQAEFFFBAAQUUUEABBRRQQAEFFFBAAQUUUEABBRRQQAEFFFBAAQUUUEABBRRQQAEFFFBAAQUUUEABBRRQQIHHAp9//9/9NWCAAQYYYKBl4Nxut8tfAwYYYIABBloGDAADyABkgAEGGAgaMACCR7fyWyvfvd2bAQaWAQPAALD8GWCAAQaCBgyA4NHXEvTNC4EBBhhoGTAADADLnwEGGGAgaMAACB7dym+tfPd2bwYYWAYMAAPA8meAAQYYCBowAIJHX0vQNy8EBhhgoGXAADAALH8GGGCAgaABAyB4dCu/tfLd270ZYGAZMAAMAMufAQYYYCBowAAIHn0tQd+8EBhggIGWAQPAALD8GWCAAQaCBgyA4NGt/NbKd2/3ZoCBZcAAMAAsfwYYYICBoAEDIHj0tQR980JggAEGWgYMAAPA8meAAQYYCBowAIJHt/JbK9+93ZsBBpYBA8AAsPwZYIABBoIGDIDg0dcS9M0LgQEGGGgZMAAMAMufAQYYYCBowAAIHt3Kb61893ZvBhhYBgwAA8DyZ4ABBhgIGjAAgkdfS9A3LwQGGGCgZcAAMAAsfwYYYICBoAEDIHh0K7+18t3bvRlgYBkwAAwAy58BBhhgIGjAAAgefS1B37wQGGCAgZYBA8AAsPwZYIABBoIGDIDg0a381sp3b/dmgIFlwAAwACx/BhhggIGgAQMgePS1BH3zQmCAAQZaBgwAA8DyZ4ABBhgIGjAAgke38lsr373dmwEGlgEDwACw/BlggAEGggYMgODR1xL0zQuBAQYYaBkwAAwAy58BBhhgIGjAAAge3cpvrXz3dm8GGFgGDAADwPJngAEGGAgaMACCR19L0DcvBAYYYKBlwAAwACx/BhhggIGgAQMgeHQrv7Xy3du9GWBgGTAADADLnwEGGGAgaMAACB59LUHfvBAYYICBlgEDwACw/BlggAEGggYMgODRrfzWyndv92aAgWXAADAALH8GGGCAgaABAyB49LUEffNCYIABBloGDAADwPJngAEGGAgaMACCR7fyWyvfvd2bAQaWAQPAALD8GWCAAQaCBgyA4NHXEvTNC4EBBhhoGTAADADLnwEGGGAgaMAACB7dym+tfPd2bwYYWAYMAAPA8meAAQYYCBowAIJHX0vQNy8EBhhgoGXAADAALH8GGGCAgaABAyB4dCu/tfLd270ZYGAZMAAMAMufAQYYYCBowAAIHn0tQd+8EBhggIGWAQPAALD8GWCAAQaCBgyA4NGt/NbKd2/3ZoCBZcAAMAAsfwYYYICBoAEDIHj0tQR980JggAEGWgYMAAPA8meAAQYYCBowAIJHt/JbK9+93ZsBBpYBA8AAsPwZYIABBoIGDIDg0dcS9M0LgQEGGGgZMAAMAMufAQYYYCBowAAIHt3Kb61893ZvBhhYBgwAA8DyZ4ABBhgIGjAAgkdfS9A3LwQGGGCgZcAAMAAsfwYYYICBoAEDIHh0K7+18t3bvRlgYBkwAAwAy58BBhhgIGjAAAgefS1B37wQGGCAgZYBA8AAsPwZYIABBoIGDIDg0a381sp3b/dmgIFlwAAwACx/BhhggIGgAQMgePS1BH3zQmCAAQZaBgwAA8DyZ4ABBhgIGjAAgke38lsr373dmwEGlgEDwACw/BlggAEGggYMgODR1xL0zQuBAQYYaBkwAAwAy58BBhhgIGjAAAge3cpvrXz3dm8GGFgGDAADwPJngAEGGAgaMACCR19L0DcvBAYYYKBlwAAwACx/BhhggIGgAQMgeHQrv7Xy3du9GWBgGTAADADLnwEGGGAgaMAACB59LUHfvBAYYICBlgEDwACw/BlggAEGggYMgODRrfzWyndv92aAgWXAADAALH8GGGCAgaABAyB49LUEffNCYIABBloGDAADwPJngAEGGAgaMACCR7fyWyvfvd2bAQaWAQPAALD8GWCAAQaCBgyA4NHXEvTNC4EBBhhoGTAADADLnwEGGGAgaMAACB7dym+tfPd2bwYYWAYMAAPA8meAAQYYCBowAIJHX0vQNy8EBhhgoGXAADAALH8GGGCAgaABAyB4dCu/tfLd270ZYGAZMAAMAMufAQYYYCBowAAIHn0tQd+8EBhggIGWAQPAALD8GWCAAQaCBgyA4NGt/NbKd2/3ZoCBZcAAMAAsfwYYYICBoAEDIHj0tQR980JggAEGWgbOj99/Ln8NGGCAAQYYaBk45+fH5a8BAwwwwAADMQMOHju4wWfwMsAAAwx8GzAADAAGGGCAAQaCBhw9eHTr3/pngAEGGDAADAAGGGCAAQaCBhw9eHTL3/JngAEGGDAADAAGGGCAAQaCBhw9eHTL3/JngAEGGDAADAAGGGCAAQaCBhw9eHTL3/JngAEGGDAADAAGGGCAAQaCBhw9eHTL3/JngAEGGDAADAAGGGCAAQaCBhw9eHTL3/JngAEGGDAADAAGGGCAAQaCBhw9eHTL3/JngAEGGDAADAAGGGCAAQaCBhw9eHTL3/JngAEGGDAADAAGGGCAAQaCBhw9eHTL3/JngAEGGDAADAAGGGCAAQaCBhw9eHTL3/JngAEGGDAADAAGGGCAAQaCBhw9eHTL3/JngAEGGDAADAAGGGCAAQaCBhw9eHTL3/JngAEGGDAADAAGGGCAAQaCBhw9eHTL3/JngAEGGDAADAAGGGCAAQaCBhw9eHTL3/JngAEGGDAADAAGGGCAAQaCBhw9eHTL3/JngAEGGDAADAAGGGCAAQaCBhw9eHTL3/JngAEGGDAADAAGGGCAAQaCBhw9eHTL3/JngAEGGDAADAAGGGCAAQaCBhw9eHTL3/JngAEGGDAADAAGGGCAAQaCBhw9eHTL3/JngAEGGDAADAAGGGCAAQaCBhw9eHTL3/JngAEGGDAADAAGGGCAAQaCBhw9eHTL3/JngAEGGDAADAAGGGCAAQaCBhw9eHTL3/JngAEGGDAADAAGGGCAAQaCBhw9eHTL3/JngAEGGDAADAAGGGCAAQaCBhw9eHTL3/JngAEGGDAADAAGGGCAAQaCBhw9eHTL3/JngAEGGDAADAAGGGCAAQaCBhw9eHTL3/JngAEGGDAADAAGGGCAAQaCBhw9eHTL3/JngAEGGDAADAAGGGCAAQaCBhw9eHTL3/JngAEGGDAADAAGGGCAAQaCBhw9eHTL3/JngAEGGDAADAAGGGCAAQaCBhw9eHTL3/JngAEGGDAADAAGGGCAAQaCBhw9eHTL3/JngAEGGDAADAAGGGCAAQaCBhw9eHTL3/JngAEGGDAADAAGGGCAAQaCBhw9eHTL3/JngAEGGDAADAAGGGCAAQaCBhw9eHTL3/JngAEGGDAADAAGGGCAAQaCBhw9eHTL3/JngAEGGDAADAAGGGCAAQaCBhw9eHTL3/JngAEGGDAADAAGGGCAAQaCBhw9eHTL3/JngAEGGDAADAAGGGCAAQaCBhw9eHTL3/JngAEGGDAADAAGGGCAAQaCBhw9eHTL3/JngAEGGDAADAAGGGCAAQaCBhw9eHTL3/JngAEGGDAADAAGGGCAAQaCBhw9eHTL3/JngAEGGDAADAAGGGCAAQaCBhw9eHTL3/JngAEGGDAADAAGGGCAAQaCBhw9eHTL3/JngAEGGDAADAAGGGCAAQaCBhw9eHTL3/JngAEGGDAADAAGGGCAAQaCBhw9eHTL3/JngAEGGDAADAAGGGCAAQaCBhw9eHTL3/JngAEGGDAADAAGGGCAAQaCBhw9eHTL3/JngAEGGDAADAAGGGCAAQaCBhw9eHTL3/JngAEGGDAADAAGGGCAAQaCBhw9eHTL3/JngAEGGDAADAAGGGCAAQaCBhw9eHTL3/JngAEGGDAADAAGGGCAAQaCBhw9eHTL3/JngAEGGDAADAAGGGCAAQaCBhw9eHTL3/JngAEGGDAADAAGGGCAAQaCBhw9eHTL3/JngAEGGDAADAAGGGCAAQaCBhw9eHTL3/JngAEGGDAADAAGGGCAAQaCBhw9eHTL3/JngAEGGHh6fbv8NWCAAQYYYKBl4Pw7L5e/BgwwwAADDLQMGAAGkAHIAAMMMBA0YAAEj27lt1a+e7s3AwwsAwaAAWD5M8AAAwwEDRgAwaOvJeibFwIDDDDQMmAAGACWPwMMMMBA0IABEDy6ld9a+e7t3gwwsAwYAAaA5c8AAwwwEDRgAASPvpagb14IDDDAQMuAAWAAWP4MMMAAA0EDBkDw6FZ+a+W7t3szwMAyYAAYAJY/AwwwwEDQgAEQPPpagr55ITDAAAMtAwaAAWD5M8AAAwwEDRgAwaNb+a2V797uzQADy4ABYABY/gwwwAADQQMGQPDoawn65oXAAAMMtAwYAAaA5c8AAwwwEDRgAASPbuW3Vr57uzcDDCwDBoABYPkzwAADDAQNGADBo68l6JsXAgMMMNAyYAAYAJY/AwwwwEDQgAEQPLqV31r57u3eDDCwDBgABoDlzwADDDAQNGAABI++lqBvXggMMMBAy4ABYABY/gwwwAADQQMGQPDoVn5r5bu3ezPAwDJgABgAlj8DDDDAQNCAARA8+lqCvnkhMMAAAy0DBoABYPkzwAADDAQNGADBo1v5rZXv3u7NAAPLgAFgAFj+DDDAAANBAwZA8OhrCfrmhcAAAwy0DBgABoDlzwADDDAQNGAABI9u5bdWvnu7NwMMLAMGgAFg+TPAAAMMBA0YAMGjryXomxcCAwww0DJgABgAlj8DDDDAQNCAARA8upXfWvnu7d4MMLAMGAAGgOXPAAMMMBA0YAAEj76WoG9eCAwwwEDLgAFgAFj+DDDAAANBAwZA8OhWfmvlu7d7M8DAMmAAGACWPwMMMMBA0IABEDz6WoK+eSEwwAADLQMGgAFg+TPAAAMMBA0YAMGjW/mtle/e7s0AA8uAAWAAWP4MMMAAA0EDBkDw6GsJ+uaFwAADDLQMGAAGgOXPAAMMMBA0YAAEj27lt1a+e7s3AwwsAwaAAWD5M8AAAwwEDRgAwaOvJeibFwIDDDDQMmAAGACWPwMMMMBA0IABEDy6ld9a+e7t3gwwsAwYAAaA5c8AAwwwEDRgAASPvpagb14IDDDAQMuAAWAAWP4MMMAAA0EDBkDw6FZ+a+W7t3szwMAyYAAYAJY/AwwwwEDQgAEQPPpagr55ITDAAAMtAwaAAWD5M8AAAwwEDRgAwaNb+a2V797uzQADy4ABYABY/gwwwAADQQMGQPDoawn65oXAAAMMtAwYAAaA5c8AAwwwEDRgAASPbuW3Vr57uzcDDCwDBoABYPkzwAADDAQNGADBo68l6JsXAgMMMNAyYAAYAJY/AwwwwEDQgAEQPLqV31r57u3eDDCwDBgABoDlzwADDDAQNGAABI++lqBvXggMMMBAy4ABYABY/gwwwAADQQMGQPDoVn5r5bu3ezPAwDJgABgAlj8DDDDAQNCAARA8+lqCvnkhMMAAAy0DBoABYPkzwAADDAQNGADBo1v5rZXv3u7NAAPLgAFgAFj+DDDAAANBAwZA8OhrCfrmhcAAAwy0DBgABoDlzwADDDAQNGAABI9u5bdWvnu7NwMMLAMGgAFg+TPAAAMMBA0YAMGjryXomxcCAwww0DJgABgAlj8DDDDAQNCAARA8upXfWvnu7d4MMLAMGAAGgOXPAAMMMBA0YAAEj76WoG9eCAwwwEDLgAFgAFj+DDDAAANBAwZA8OhWfmvlu7d7M8DAMmAAGACWPwMMMMBA0IABEDz6WoK+eSEwwAADLQMGgAFg+TPAAAMMBA0YAMGjW/mtle/e7s0AA8uAAWAAWP4MMMAAA0EDBkDw6GsJ+uaFwAADDLQMGAAGgOXPAAMMMBA0YAAEj27lt1a+e7s3AwwsAwaAAWD5M8AAAwwEDRgAwaOvJeibFwIDDDDQMmAAGACWPwMMMMBA0IABEDy6ld9a+e7t3gwwsAwYAAaA5c8AAwwwEDRgAASPvpagb14IDDDAQMuAAWAAWP4MMMAAA0EDBkDw6FZ+a+W7t3szwMAyYAAYAJY/AwwwwEDQgAEQPPpagr55ITDAAAMtAwaAAWD5M8AAAwwEDRgAwaNb+a2V797uzQADy4ABYABY/gwwwAADQQMGQPDoawn65oXAAAMMtAyc9+dfd38NGGCAAQYYaBk4fgoooIACCiiggAIKKKCAAgoooIACCiiggAIKKKCAAgoooIACCiiggAIKKKCAAgoooIACCiiggAIKKKCAAgoooIACCiiggAIKKKCAAgoooIACCiiggAIKKKCAAgoooIACCiiggAIKKKCAAgoooIACCiiggAIKKKCAAgoooIACCiiggAIKKKCAAgoooIACCiiggAIKKKCAAgoooIACCiiggAIKKKCAAgoooIACCiiggAIKKKCAAgoooIACCiiggAIKKKCAAgoooIACCiiggAIKKKCAAgoooIACCiiggAIKKKCAAgoooIACCiiggAIKKKCAAgoooIACCiiggAIKKKCAAgoooIACCiiggAIKKKCAAgoooIACCiiggAIKKKCAAgoooIACCiiggAIKKKCAAgoooIACCiiggAIKKKCAAgoooIACCiiggAIKKKCAAgoooIACCiiggAIKKKCAAgoooIACCiiggAIKKKCAAgoooIACCiiggAIKKKCAAgoooIACCiiggAIKKKCAAgoooIACCiiggAIKKKCAAgoooIACCiiggAIKKKCAAgoooIACCiiggAIKKKCAAgoooIACCiiggAIKKKCAAgoooIACCiiggAIKKKCAAgoooIACCiiggAIKKKCAAgoooIACCiiggAIKKKCAAgoooIACCiiggAIKKKCAAgoooIACCiiggAIKKKCAAgoooIACCiiggAIKKKCAAgoooIACCiiggAIKKKCAAgoooIACCiiggAIKKKCAAgoooIACCiiggAIKKKCAAgoooIACCiiggAIKKKCAAgoooIACCiiggAIKKKCAAgoooIACCiiggAIKKKCAAgoooIACCiiggAIKKKCAAgoooIACCiiggAIKKKCAAgoooIACCiiggAIKKKCAAgoooIACCiiggAIKKKCAAgoooIACCiiggAIKKKCAAgoooIACCiiggAIKKKCAAgoooIACCiiggAIKKKCAAgoooIACCiiggAIKKKCAAgoooIACCiiggAIKKKCAAgoooIACCiiggAIKKKCAAgoooIACCiiggAIKKKCAAgoooIACCiiggAIKKKCAAgoooIACCiiggAIKKKCAAgoooIACCiiggAIKKKCAAgoo8FjgC0+9InoaRYPyAAAAAElFTkSuQmCC;" vertex="1" parent="1">
          <mxGeometry x="60" y="313" width="10" height="10" as="geometry" />
        </mxCell>
        <mxCell id="JCwLTpMFITTxm-Wv9MS6-25" value="1 USD" style="text;html=1;align=center;verticalAlign=middle;whiteSpace=wrap;rounded=0;fontSize=4;fontColor=#999999;" vertex="1" parent="1">
          <mxGeometry x="71" y="292" width="20" height="10" as="geometry" />
        </mxCell>
        <mxCell id="JCwLTpMFITTxm-Wv9MS6-27" value="1 EUR" style="text;html=1;align=center;verticalAlign=middle;whiteSpace=wrap;rounded=0;fontSize=4;fontColor=#999999;" vertex="1" parent="1">
          <mxGeometry x="71" y="303" width="20" height="10" as="geometry" />
        </mxCell>
        <mxCell id="JCwLTpMFITTxm-Wv9MS6-28" value="100 RUB" style="text;html=1;align=center;verticalAlign=middle;whiteSpace=wrap;rounded=0;fontSize=4;fontColor=#999999;" vertex="1" parent="1">
          <mxGeometry x="71" y="313" width="20" height="10" as="geometry" />
        </mxCell>
        <mxCell id="JCwLTpMFITTxm-Wv9MS6-36" value="3.24" style="text;html=1;align=center;verticalAlign=middle;whiteSpace=wrap;rounded=0;fontSize=4;" vertex="1" parent="1">
          <mxGeometry x="97" y="293" width="20" height="10" as="geometry" />
        </mxCell>
        <mxCell id="JCwLTpMFITTxm-Wv9MS6-37" value="3.28" style="text;html=1;align=center;verticalAlign=middle;whiteSpace=wrap;rounded=0;fontSize=4;" vertex="1" parent="1">
          <mxGeometry x="117" y="293" width="20" height="10" as="geometry" />
        </mxCell>
        <mxCell id="JCwLTpMFITTxm-Wv9MS6-38" value="3.51" style="text;html=1;align=center;verticalAlign=middle;whiteSpace=wrap;rounded=0;fontSize=4;" vertex="1" parent="1">
          <mxGeometry x="97" y="303" width="20" height="10" as="geometry" />
        </mxCell>
        <mxCell id="JCwLTpMFITTxm-Wv9MS6-39" value="3.61" style="text;html=1;align=center;verticalAlign=middle;whiteSpace=wrap;rounded=0;fontSize=4;" vertex="1" parent="1">
          <mxGeometry x="117" y="303" width="20" height="10" as="geometry" />
        </mxCell>
        <mxCell id="JCwLTpMFITTxm-Wv9MS6-40" value="3.38" style="text;html=1;align=center;verticalAlign=middle;whiteSpace=wrap;rounded=0;fontSize=4;" vertex="1" parent="1">
          <mxGeometry x="97" y="313" width="20" height="10" as="geometry" />
        </mxCell>
        <mxCell id="JCwLTpMFITTxm-Wv9MS6-41" value="3.42" style="text;html=1;align=center;verticalAlign=middle;whiteSpace=wrap;rounded=0;fontSize=4;" vertex="1" parent="1">
          <mxGeometry x="117" y="313" width="20" height="10" as="geometry" />
        </mxCell>
        <mxCell id="JCwLTpMFITTxm-Wv9MS6-42" value="" style="html=1;whiteSpace=wrap;strokeColor=none;fillColor=#0079D6;labelPosition=center;verticalLabelPosition=middle;verticalAlign=top;align=center;fontSize=12;outlineConnect=0;spacingTop=-6;fontColor=#FFFFFF;sketch=0;shape=mxgraph.sitemap.contact_us;" vertex="1" parent="1">
          <mxGeometry x="155" y="320.5" width="40" height="25" as="geometry" />
        </mxCell>
        <mxCell id="JCwLTpMFITTxm-Wv9MS6-44" value="Вопросы" style="text;html=1;align=center;verticalAlign=middle;whiteSpace=wrap;rounded=0;fontSize=9;" vertex="1" parent="1">
          <mxGeometry x="160" y="313" width="30" height="10" as="geometry" />
        </mxCell>
        <mxCell id="JCwLTpMFITTxm-Wv9MS6-45" value="Новости" style="text;html=1;align=center;verticalAlign=middle;whiteSpace=wrap;rounded=0;fontSize=9;" vertex="1" parent="1">
          <mxGeometry x="160" y="263" width="30" height="10" as="geometry" />
        </mxCell>
        <mxCell id="JCwLTpMFITTxm-Wv9MS6-55" value="" style="html=1;whiteSpace=wrap;strokeColor=none;fillColor=#0079D6;labelPosition=center;verticalLabelPosition=middle;verticalAlign=top;align=center;fontSize=12;outlineConnect=0;spacingTop=-6;fontColor=#FFFFFF;sketch=0;shape=mxgraph.sitemap.news;" vertex="1" parent="1">
          <mxGeometry x="155" y="271.75" width="40" height="22.5" as="geometry" />
        </mxCell>
        <mxCell id="JCwLTpMFITTxm-Wv9MS6-58" value="" style="endArrow=none;html=1;rounded=0;" edge="1" parent="1">
          <mxGeometry width="50" height="50" relative="1" as="geometry">
            <mxPoint x="40" y="363" as="sourcePoint" />
            <mxPoint x="210" y="363" as="targetPoint" />
          </mxGeometry>
        </mxCell>
        <mxCell id="JCwLTpMFITTxm-Wv9MS6-63" value="Меню" style="rounded=1;whiteSpace=wrap;html=1;fillColor=#66FFFF;fontColor=#000000;strokeColor=#006EAF;fontSize=9;" vertex="1" parent="1">
          <mxGeometry x="50" y="367" width="150" height="20" as="geometry" />
        </mxCell>
        <mxCell id="JCwLTpMFITTxm-Wv9MS6-65" value="" style="rounded=1;whiteSpace=wrap;html=1;labelBackgroundColor=none;fillStyle=auto;fillColor=#1ba1e2;strokeColor=#006EAF;fontColor=#ffffff;" vertex="1" parent="1">
          <mxGeometry x="300" y="123" width="170" height="280" as="geometry" />
        </mxCell>
        <mxCell id="JCwLTpMFITTxm-Wv9MS6-66" value="" style="endArrow=none;html=1;rounded=0;" edge="1" parent="1">
          <mxGeometry width="50" height="50" relative="1" as="geometry">
            <mxPoint x="300" y="154" as="sourcePoint" />
            <mxPoint x="470" y="154" as="targetPoint" />
          </mxGeometry>
        </mxCell>
        <mxCell id="JCwLTpMFITTxm-Wv9MS6-67" value="Bank name" style="text;html=1;align=center;verticalAlign=middle;whiteSpace=wrap;rounded=0;fontStyle=3" vertex="1" parent="1">
          <mxGeometry x="351" y="130" width="68" height="8" as="geometry" />
        </mxCell>
        <mxCell id="JCwLTpMFITTxm-Wv9MS6-68" value="Monday 01.01.2000" style="text;html=1;align=center;verticalAlign=middle;whiteSpace=wrap;rounded=0;fontSize=7;" vertex="1" parent="1">
          <mxGeometry x="310" y="143" width="70" height="10" as="geometry" />
        </mxCell>
        <mxCell id="JCwLTpMFITTxm-Wv9MS6-69" value="" style="shape=message;html=1;html=1;outlineConnect=0;labelPosition=center;verticalLabelPosition=bottom;align=center;verticalAlign=top;fillColor=#fff2cc;strokeColor=#d6b656;" vertex="1" parent="1">
          <mxGeometry x="440" y="138" width="17" height="10" as="geometry" />
        </mxCell>
        <mxCell id="JCwLTpMFITTxm-Wv9MS6-96" value="назад" style="rounded=1;whiteSpace=wrap;html=1;fillColor=#66FFFF;fontColor=#000000;strokeColor=#006EAF;fontSize=9;" vertex="1" parent="1">
          <mxGeometry x="310" y="367" width="150" height="20" as="geometry" />
        </mxCell>
        <mxCell id="JCwLTpMFITTxm-Wv9MS6-97" value="" style="endArrow=none;html=1;rounded=0;" edge="1" parent="1">
          <mxGeometry width="50" height="50" relative="1" as="geometry">
            <mxPoint x="300" y="363" as="sourcePoint" />
            <mxPoint x="470" y="363" as="targetPoint" />
          </mxGeometry>
        </mxCell>
        <mxCell id="JCwLTpMFITTxm-Wv9MS6-98" value="Главная" style="rounded=1;whiteSpace=wrap;html=1;fillColor=#66FFFF;" vertex="1" parent="1">
          <mxGeometry x="310" y="163" width="150" height="30" as="geometry" />
        </mxCell>
        <mxCell id="JCwLTpMFITTxm-Wv9MS6-100" value="Платежи" style="rounded=1;whiteSpace=wrap;html=1;fillColor=#66FFFF;" vertex="1" parent="1">
          <mxGeometry x="310" y="203" width="150" height="30" as="geometry" />
        </mxCell>
        <mxCell id="JCwLTpMFITTxm-Wv9MS6-101" value="Журнал&lt;span style=&quot;color: rgba(0, 0, 0, 0); font-family: monospace; font-size: 0px; text-align: start; text-wrap: nowrap;&quot;&gt;%3CmxGraphModel%3E%3Croot%3E%3CmxCell%20id%3D%220%22%2F%3E%3CmxCell%20id%3D%221%22%20parent%3D%220%22%2F%3E%3CmxCell%20id%3D%222%22%20value%3D%22%D0%93%D0%BB%D0%B0%D0%B2%D0%BD%D0%B0%D1%8F%22%20style%3D%22rounded%3D1%3BwhiteSpace%3Dwrap%3Bhtml%3D1%3BfillColor%3D%2366FFFF%3B%22%20vertex%3D%221%22%20parent%3D%221%22%3E%3CmxGeometry%20x%3D%22270%22%20y%3D%2280%22%20width%3D%22150%22%20height%3D%2230%22%20as%3D%22geometry%22%2F%3E%3C%2FmxCell%3E%3C%2Froot%3E%3C%2FmxGraphModel%3E&lt;/span&gt;" style="rounded=1;whiteSpace=wrap;html=1;fillColor=#66FFFF;" vertex="1" parent="1">
          <mxGeometry x="310" y="243" width="150" height="30" as="geometry" />
        </mxCell>
        <mxCell id="JCwLTpMFITTxm-Wv9MS6-102" value="Финансы" style="rounded=1;whiteSpace=wrap;html=1;fillColor=#66FFFF;" vertex="1" parent="1">
          <mxGeometry x="310" y="283" width="150" height="30" as="geometry" />
        </mxCell>
        <mxCell id="JCwLTpMFITTxm-Wv9MS6-103" value="Заказать карту" style="rounded=1;whiteSpace=wrap;html=1;fillColor=#66FFFF;" vertex="1" parent="1">
          <mxGeometry x="310" y="323" width="150" height="30" as="geometry" />
        </mxCell>
        <mxCell id="JCwLTpMFITTxm-Wv9MS6-104" value="" style="rounded=1;whiteSpace=wrap;html=1;labelBackgroundColor=none;fillStyle=auto;fillColor=#1ba1e2;strokeColor=#006EAF;fontColor=#ffffff;" vertex="1" parent="1">
          <mxGeometry x="565" y="123" width="170" height="280" as="geometry" />
        </mxCell>
        <mxCell id="JCwLTpMFITTxm-Wv9MS6-105" value="" style="endArrow=none;html=1;rounded=0;" edge="1" parent="1">
          <mxGeometry width="50" height="50" relative="1" as="geometry">
            <mxPoint x="565" y="154" as="sourcePoint" />
            <mxPoint x="735" y="154" as="targetPoint" />
          </mxGeometry>
        </mxCell>
        <mxCell id="JCwLTpMFITTxm-Wv9MS6-106" value="Bank name" style="text;html=1;align=center;verticalAlign=middle;whiteSpace=wrap;rounded=0;fontStyle=3" vertex="1" parent="1">
          <mxGeometry x="616" y="130" width="68" height="8" as="geometry" />
        </mxCell>
        <mxCell id="JCwLTpMFITTxm-Wv9MS6-107" value="Monday 01.01.2000" style="text;html=1;align=center;verticalAlign=middle;whiteSpace=wrap;rounded=0;fontSize=7;" vertex="1" parent="1">
          <mxGeometry x="575" y="143" width="70" height="10" as="geometry" />
        </mxCell>
        <mxCell id="JCwLTpMFITTxm-Wv9MS6-108" value="" style="shape=message;html=1;html=1;outlineConnect=0;labelPosition=center;verticalLabelPosition=bottom;align=center;verticalAlign=top;fillColor=#fff2cc;strokeColor=#d6b656;" vertex="1" parent="1">
          <mxGeometry x="705" y="138" width="17" height="10" as="geometry" />
        </mxCell>
        <mxCell id="JCwLTpMFITTxm-Wv9MS6-110" value="" style="endArrow=none;html=1;rounded=0;" edge="1" parent="1">
          <mxGeometry width="50" height="50" relative="1" as="geometry">
            <mxPoint x="565" y="363" as="sourcePoint" />
            <mxPoint x="735" y="363" as="targetPoint" />
          </mxGeometry>
        </mxCell>
        <mxCell id="JCwLTpMFITTxm-Wv9MS6-116" value="Далее" style="rounded=1;whiteSpace=wrap;html=1;fillColor=#66FFFF;fontColor=#000000;strokeColor=#006EAF;fontSize=9;" vertex="1" parent="1">
          <mxGeometry x="578.75" y="367" width="70" height="20" as="geometry" />
        </mxCell>
        <mxCell id="JCwLTpMFITTxm-Wv9MS6-117" value="" style="sketch=0;outlineConnect=0;fontColor=#232F3E;gradientColor=none;fillColor=#232F3D;strokeColor=none;dashed=0;verticalLabelPosition=bottom;verticalAlign=top;align=center;html=1;fontSize=12;fontStyle=0;aspect=fixed;pointerEvents=1;shape=mxgraph.aws4.user;" vertex="1" parent="1">
          <mxGeometry x="611" y="180" width="78" height="78" as="geometry" />
        </mxCell>
        <mxCell id="JCwLTpMFITTxm-Wv9MS6-118" value="Операция будет продолжена под выбранной учетной записью" style="text;html=1;align=center;verticalAlign=middle;whiteSpace=wrap;rounded=0;fontSize=9;fontColor=#4D4D4D;textShadow=1;" vertex="1" parent="1">
          <mxGeometry x="578.75" y="263" width="142.5" height="40" as="geometry" />
        </mxCell>
        <mxCell id="JCwLTpMFITTxm-Wv9MS6-119" value="Учетная запись" style="text;html=1;align=center;verticalAlign=middle;whiteSpace=wrap;rounded=0;fontSize=9;fontColor=#4D4D4D;" vertex="1" parent="1">
          <mxGeometry x="570" y="301.75" width="75" height="18.75" as="geometry" />
        </mxCell>
        <mxCell id="JCwLTpMFITTxm-Wv9MS6-120" value="&lt;font style=&quot;font-size: 10px;&quot;&gt;ИИ&lt;/font&gt;" style="ellipse;whiteSpace=wrap;html=1;aspect=fixed;fillColor=#66FFFF;" vertex="1" parent="1">
          <mxGeometry x="575" y="327" width="26" height="26" as="geometry" />
        </mxCell>
        <mxCell id="JCwLTpMFITTxm-Wv9MS6-121" value="Иванов Иван Иванович" style="text;html=1;align=center;verticalAlign=middle;whiteSpace=wrap;rounded=0;fontSize=9;" vertex="1" parent="1">
          <mxGeometry x="608.25" y="327" width="106.75" height="10" as="geometry" />
        </mxCell>
        <mxCell id="JCwLTpMFITTxm-Wv9MS6-122" value="12345******РВ1" style="text;html=1;align=center;verticalAlign=middle;whiteSpace=wrap;rounded=0;fontSize=9;" vertex="1" parent="1">
          <mxGeometry x="611" y="338" width="66.25" height="15" as="geometry" />
        </mxCell>
        <mxCell id="JCwLTpMFITTxm-Wv9MS6-123" value="Идентификационный номер" style="text;html=1;align=center;verticalAlign=middle;whiteSpace=wrap;rounded=0;fontSize=6;fontColor=#4D4D4D;" vertex="1" parent="1">
          <mxGeometry x="608.25" y="353" width="89" height="10" as="geometry" />
        </mxCell>
        <mxCell id="JCwLTpMFITTxm-Wv9MS6-125" value="" style="endArrow=none;html=1;rounded=0;" edge="1" parent="1">
          <mxGeometry width="50" height="50" relative="1" as="geometry">
            <mxPoint x="565" y="303" as="sourcePoint" />
            <mxPoint x="735" y="303" as="targetPoint" />
          </mxGeometry>
        </mxCell>
        <mxCell id="JCwLTpMFITTxm-Wv9MS6-127" value="" style="rounded=1;whiteSpace=wrap;html=1;labelBackgroundColor=none;fillStyle=auto;fillColor=#1ba1e2;strokeColor=#006EAF;fontColor=#ffffff;" vertex="1" parent="1">
          <mxGeometry x="840" y="123" width="170" height="280" as="geometry" />
        </mxCell>
        <mxCell id="JCwLTpMFITTxm-Wv9MS6-128" value="" style="endArrow=none;html=1;rounded=0;" edge="1" parent="1">
          <mxGeometry width="50" height="50" relative="1" as="geometry">
            <mxPoint x="840" y="154" as="sourcePoint" />
            <mxPoint x="1010" y="154" as="targetPoint" />
          </mxGeometry>
        </mxCell>
        <mxCell id="JCwLTpMFITTxm-Wv9MS6-129" value="Bank name" style="text;html=1;align=center;verticalAlign=middle;whiteSpace=wrap;rounded=0;fontStyle=3" vertex="1" parent="1">
          <mxGeometry x="891" y="130" width="68" height="8" as="geometry" />
        </mxCell>
        <mxCell id="JCwLTpMFITTxm-Wv9MS6-130" value="Monday 01.01.2000" style="text;html=1;align=center;verticalAlign=middle;whiteSpace=wrap;rounded=0;fontSize=7;" vertex="1" parent="1">
          <mxGeometry x="850" y="143" width="70" height="10" as="geometry" />
        </mxCell>
        <mxCell id="JCwLTpMFITTxm-Wv9MS6-131" value="" style="shape=message;html=1;html=1;outlineConnect=0;labelPosition=center;verticalLabelPosition=bottom;align=center;verticalAlign=top;fillColor=#fff2cc;strokeColor=#d6b656;" vertex="1" parent="1">
          <mxGeometry x="980" y="138" width="17" height="10" as="geometry" />
        </mxCell>
        <mxCell id="JCwLTpMFITTxm-Wv9MS6-132" value="" style="endArrow=none;html=1;rounded=0;" edge="1" parent="1">
          <mxGeometry width="50" height="50" relative="1" as="geometry">
            <mxPoint x="840" y="363" as="sourcePoint" />
            <mxPoint x="1010" y="363" as="targetPoint" />
          </mxGeometry>
        </mxCell>
        <mxCell id="JCwLTpMFITTxm-Wv9MS6-143" value="Способ доставки" style="text;html=1;align=center;verticalAlign=middle;whiteSpace=wrap;rounded=0;fontSize=9;fontColor=#4D4D4D;" vertex="1" parent="1">
          <mxGeometry x="885" y="155.25" width="80" height="24.75" as="geometry" />
        </mxCell>
        <mxCell id="JCwLTpMFITTxm-Wv9MS6-144" value="" style="ellipse;whiteSpace=wrap;html=1;aspect=fixed;direction=south;" vertex="1" parent="1">
          <mxGeometry x="860" y="180" width="13" height="13" as="geometry" />
        </mxCell>
        <mxCell id="JCwLTpMFITTxm-Wv9MS6-151" value="Возврат в меню" style="rounded=1;whiteSpace=wrap;html=1;fillColor=#66FFFF;fontColor=#000000;strokeColor=#006EAF;fontSize=9;" vertex="1" parent="1">
          <mxGeometry x="655" y="367" width="70" height="20" as="geometry" />
        </mxCell>
        <mxCell id="JCwLTpMFITTxm-Wv9MS6-152" value="Вид счета, к которому выпускается карта" style="text;html=1;align=center;verticalAlign=middle;whiteSpace=wrap;rounded=0;fontSize=9;fontColor=#4D4D4D;" vertex="1" parent="1">
          <mxGeometry x="840" y="228" width="170" height="25" as="geometry" />
        </mxCell>
        <mxCell id="JCwLTpMFITTxm-Wv9MS6-153" value="" style="ellipse;whiteSpace=wrap;html=1;aspect=fixed;direction=south;" vertex="1" parent="1">
          <mxGeometry x="860" y="201.5" width="13" height="13" as="geometry" />
        </mxCell>
        <mxCell id="JCwLTpMFITTxm-Wv9MS6-154" value="Белпочтой на дом" style="text;html=1;align=center;verticalAlign=middle;whiteSpace=wrap;rounded=0;fontSize=9;" vertex="1" parent="1">
          <mxGeometry x="880" y="180" width="87" height="12" as="geometry" />
        </mxCell>
        <mxCell id="JCwLTpMFITTxm-Wv9MS6-155" value="В отделение банка" style="text;html=1;align=center;verticalAlign=middle;whiteSpace=wrap;rounded=0;fontSize=9;" vertex="1" parent="1">
          <mxGeometry x="880" y="201.5" width="87" height="12" as="geometry" />
        </mxCell>
        <mxCell id="JCwLTpMFITTxm-Wv9MS6-163" value="" style="ellipse;whiteSpace=wrap;html=1;aspect=fixed;direction=south;" vertex="1" parent="1">
          <mxGeometry x="860" y="255.75" width="13" height="13" as="geometry" />
        </mxCell>
        <mxCell id="JCwLTpMFITTxm-Wv9MS6-164" value="" style="ellipse;whiteSpace=wrap;html=1;aspect=fixed;direction=south;" vertex="1" parent="1">
          <mxGeometry x="860" y="277.25" width="13" height="13" as="geometry" />
        </mxCell>
        <mxCell id="JCwLTpMFITTxm-Wv9MS6-165" value="К действующему счету" style="text;html=1;align=center;verticalAlign=middle;whiteSpace=wrap;rounded=0;fontSize=9;" vertex="1" parent="1">
          <mxGeometry x="880" y="255.75" width="107" height="12.25" as="geometry" />
        </mxCell>
        <mxCell id="JCwLTpMFITTxm-Wv9MS6-166" value="К новому счету" style="text;html=1;align=center;verticalAlign=middle;whiteSpace=wrap;rounded=0;fontSize=9;" vertex="1" parent="1">
          <mxGeometry x="883" y="276" width="67" height="10.75" as="geometry" />
        </mxCell>
        <mxCell id="JCwLTpMFITTxm-Wv9MS6-167" value="Далее" style="rounded=1;whiteSpace=wrap;html=1;fillColor=#66FFFF;fontColor=#000000;strokeColor=#006EAF;fontSize=9;" vertex="1" parent="1">
          <mxGeometry x="851.88" y="367" width="70" height="20" as="geometry" />
        </mxCell>
        <mxCell id="JCwLTpMFITTxm-Wv9MS6-169" value="Возврат в меню" style="rounded=1;whiteSpace=wrap;html=1;fillColor=#66FFFF;fontColor=#000000;strokeColor=#006EAF;fontSize=9;" vertex="1" parent="1">
          <mxGeometry x="930" y="367" width="70" height="20" as="geometry" />
        </mxCell>
        <mxCell id="JCwLTpMFITTxm-Wv9MS6-170" value="Вид карты" style="text;html=1;align=center;verticalAlign=middle;whiteSpace=wrap;rounded=0;fontSize=9;fontColor=#4D4D4D;" vertex="1" parent="1">
          <mxGeometry x="888" y="288.38" width="80" height="24.75" as="geometry" />
        </mxCell>
        <mxCell id="JCwLTpMFITTxm-Wv9MS6-173" value="Виртуальная карта" style="text;html=1;align=center;verticalAlign=middle;whiteSpace=wrap;rounded=0;fontSize=9;" vertex="1" parent="1">
          <mxGeometry x="880" y="313" width="87" height="12" as="geometry" />
        </mxCell>
        <mxCell id="JCwLTpMFITTxm-Wv9MS6-174" value="Физическая карта" style="text;html=1;align=center;verticalAlign=middle;whiteSpace=wrap;rounded=0;fontSize=9;" vertex="1" parent="1">
          <mxGeometry x="878" y="334" width="87" height="12" as="geometry" />
        </mxCell>
        <mxCell id="JCwLTpMFITTxm-Wv9MS6-175" value="" style="rounded=1;whiteSpace=wrap;html=1;" vertex="1" parent="1">
          <mxGeometry x="861.5" y="315" width="10" height="10" as="geometry" />
        </mxCell>
        <mxCell id="JCwLTpMFITTxm-Wv9MS6-177" value="" style="rounded=1;whiteSpace=wrap;html=1;" vertex="1" parent="1">
          <mxGeometry x="861.5" y="336" width="10" height="10" as="geometry" />
        </mxCell>
        <mxCell id="JCwLTpMFITTxm-Wv9MS6-178" value="" style="rounded=1;whiteSpace=wrap;html=1;labelBackgroundColor=none;fillStyle=auto;fillColor=#1ba1e2;strokeColor=#006EAF;fontColor=#ffffff;" vertex="1" parent="1">
          <mxGeometry x="1130" y="123" width="170" height="280" as="geometry" />
        </mxCell>
        <mxCell id="JCwLTpMFITTxm-Wv9MS6-179" value="" style="endArrow=none;html=1;rounded=0;" edge="1" parent="1">
          <mxGeometry width="50" height="50" relative="1" as="geometry">
            <mxPoint x="1130" y="154" as="sourcePoint" />
            <mxPoint x="1300" y="154" as="targetPoint" />
          </mxGeometry>
        </mxCell>
        <mxCell id="JCwLTpMFITTxm-Wv9MS6-180" value="Bank name" style="text;html=1;align=center;verticalAlign=middle;whiteSpace=wrap;rounded=0;fontStyle=3" vertex="1" parent="1">
          <mxGeometry x="1181" y="130" width="68" height="8" as="geometry" />
        </mxCell>
        <mxCell id="JCwLTpMFITTxm-Wv9MS6-181" value="Monday 01.01.2000" style="text;html=1;align=center;verticalAlign=middle;whiteSpace=wrap;rounded=0;fontSize=7;" vertex="1" parent="1">
          <mxGeometry x="1140" y="143" width="70" height="10" as="geometry" />
        </mxCell>
        <mxCell id="JCwLTpMFITTxm-Wv9MS6-182" value="" style="shape=message;html=1;html=1;outlineConnect=0;labelPosition=center;verticalLabelPosition=bottom;align=center;verticalAlign=top;fillColor=#fff2cc;strokeColor=#d6b656;" vertex="1" parent="1">
          <mxGeometry x="1270" y="138" width="17" height="10" as="geometry" />
        </mxCell>
        <mxCell id="JCwLTpMFITTxm-Wv9MS6-183" value="" style="endArrow=none;html=1;rounded=0;" edge="1" parent="1">
          <mxGeometry width="50" height="50" relative="1" as="geometry">
            <mxPoint x="1130" y="363" as="sourcePoint" />
            <mxPoint x="1300" y="363" as="targetPoint" />
          </mxGeometry>
        </mxCell>
        <mxCell id="JCwLTpMFITTxm-Wv9MS6-194" value="Подтвердить выбор" style="rounded=1;whiteSpace=wrap;html=1;fillColor=#66FFFF;fontColor=#000000;strokeColor=#006EAF;fontSize=9;" vertex="1" parent="1">
          <mxGeometry x="1141.88" y="367" width="70" height="20" as="geometry" />
        </mxCell>
        <mxCell id="JCwLTpMFITTxm-Wv9MS6-195" value="Возврат в меню" style="rounded=1;whiteSpace=wrap;html=1;fillColor=#66FFFF;fontColor=#000000;strokeColor=#006EAF;fontSize=9;" vertex="1" parent="1">
          <mxGeometry x="1220" y="367" width="70" height="20" as="geometry" />
        </mxCell>
        <mxCell id="JCwLTpMFITTxm-Wv9MS6-201" value="" style="shape=ellipse;fillColor=#000000;strokeColor=none;html=1;sketch=0;" vertex="1" parent="1">
          <mxGeometry x="861.5" y="203" width="10" height="10" as="geometry" />
        </mxCell>
        <mxCell id="JCwLTpMFITTxm-Wv9MS6-202" value="" style="shape=ellipse;fillColor=#000000;strokeColor=none;html=1;sketch=0;" vertex="1" parent="1">
          <mxGeometry x="861.5" y="257.25" width="10" height="10" as="geometry" />
        </mxCell>
        <mxCell id="JCwLTpMFITTxm-Wv9MS6-204" value="" style="endArrow=none;html=1;rounded=0;exitX=0;exitY=1;exitDx=0;exitDy=0;entryX=1;entryY=0;entryDx=0;entryDy=0;fontColor=#0000FF;" edge="1" parent="1" source="JCwLTpMFITTxm-Wv9MS6-177" target="JCwLTpMFITTxm-Wv9MS6-177">
          <mxGeometry width="50" height="50" relative="1" as="geometry">
            <mxPoint x="860" y="323" as="sourcePoint" />
            <mxPoint x="910" y="273" as="targetPoint" />
          </mxGeometry>
        </mxCell>
        <mxCell id="JCwLTpMFITTxm-Wv9MS6-205" value="" style="endArrow=none;html=1;rounded=0;exitX=0;exitY=0;exitDx=0;exitDy=0;entryX=1;entryY=1;entryDx=0;entryDy=0;fontColor=#0000FF;" edge="1" parent="1" source="JCwLTpMFITTxm-Wv9MS6-177" target="JCwLTpMFITTxm-Wv9MS6-177">
          <mxGeometry width="50" height="50" relative="1" as="geometry">
            <mxPoint x="872" y="356" as="sourcePoint" />
            <mxPoint x="882" y="346" as="targetPoint" />
          </mxGeometry>
        </mxCell>
        <mxCell id="JCwLTpMFITTxm-Wv9MS6-207" value="Выберите карту" style="text;html=1;align=center;verticalAlign=middle;whiteSpace=wrap;rounded=0;fontSize=9;fontColor=#000000;" vertex="1" parent="1">
          <mxGeometry x="1175" y="156" width="80" height="24.75" as="geometry" />
        </mxCell>
        <mxCell id="JCwLTpMFITTxm-Wv9MS6-208" value="Card 1" style="rounded=1;whiteSpace=wrap;html=1;fillColor=#60a917;fontColor=#ffffff;strokeColor=#2D7600;" vertex="1" parent="1">
          <mxGeometry x="1172.5" y="180.75" width="85" height="50" as="geometry" />
        </mxCell>
        <mxCell id="JCwLTpMFITTxm-Wv9MS6-215" value="Card 2" style="rounded=1;whiteSpace=wrap;html=1;fillColor=#d80073;fontColor=#ffffff;strokeColor=#A50040;" vertex="1" parent="1">
          <mxGeometry x="1172.5" y="237.5" width="85" height="50" as="geometry" />
        </mxCell>
        <mxCell id="JCwLTpMFITTxm-Wv9MS6-216" value="Card 3" style="rounded=1;whiteSpace=wrap;html=1;fillColor=#e3c800;fontColor=#000000;strokeColor=#B09500;" vertex="1" parent="1">
          <mxGeometry x="1172.5" y="293.75" width="85" height="50" as="geometry" />
        </mxCell>
        <mxCell id="JCwLTpMFITTxm-Wv9MS6-217" value="" style="rounded=0;whiteSpace=wrap;html=1;fillColor=#66FFFF;" vertex="1" parent="1">
          <mxGeometry x="1287" y="163.75" width="11" height="190" as="geometry" />
        </mxCell>
        <mxCell id="JCwLTpMFITTxm-Wv9MS6-218" value="" style="rounded=0;whiteSpace=wrap;html=1;fillColor=#0000FF;" vertex="1" parent="1">
          <mxGeometry x="1287" y="163.13" width="11" height="50.62" as="geometry" />
        </mxCell>
        <mxCell id="JCwLTpMFITTxm-Wv9MS6-219" value="" style="rounded=1;whiteSpace=wrap;html=1;labelBackgroundColor=none;fillStyle=auto;fillColor=#1ba1e2;strokeColor=#006EAF;fontColor=#ffffff;" vertex="1" parent="1">
          <mxGeometry x="1410" y="123" width="170" height="280" as="geometry" />
        </mxCell>
        <mxCell id="JCwLTpMFITTxm-Wv9MS6-220" value="" style="endArrow=none;html=1;rounded=0;" edge="1" parent="1">
          <mxGeometry width="50" height="50" relative="1" as="geometry">
            <mxPoint x="1410" y="154" as="sourcePoint" />
            <mxPoint x="1580" y="154" as="targetPoint" />
          </mxGeometry>
        </mxCell>
        <mxCell id="JCwLTpMFITTxm-Wv9MS6-221" value="Bank name" style="text;html=1;align=center;verticalAlign=middle;whiteSpace=wrap;rounded=0;fontStyle=3" vertex="1" parent="1">
          <mxGeometry x="1461" y="130" width="68" height="8" as="geometry" />
        </mxCell>
        <mxCell id="JCwLTpMFITTxm-Wv9MS6-222" value="Monday 01.01.2000" style="text;html=1;align=center;verticalAlign=middle;whiteSpace=wrap;rounded=0;fontSize=7;" vertex="1" parent="1">
          <mxGeometry x="1420" y="143" width="70" height="10" as="geometry" />
        </mxCell>
        <mxCell id="JCwLTpMFITTxm-Wv9MS6-223" value="" style="shape=message;html=1;html=1;outlineConnect=0;labelPosition=center;verticalLabelPosition=bottom;align=center;verticalAlign=top;fillColor=#fff2cc;strokeColor=#d6b656;" vertex="1" parent="1">
          <mxGeometry x="1550" y="138" width="17" height="10" as="geometry" />
        </mxCell>
        <mxCell id="JCwLTpMFITTxm-Wv9MS6-224" value="" style="endArrow=none;html=1;rounded=0;" edge="1" parent="1">
          <mxGeometry width="50" height="50" relative="1" as="geometry">
            <mxPoint x="1410" y="363" as="sourcePoint" />
            <mxPoint x="1580" y="363" as="targetPoint" />
          </mxGeometry>
        </mxCell>
        <mxCell id="JCwLTpMFITTxm-Wv9MS6-233" value="Возврат в меню" style="rounded=1;whiteSpace=wrap;html=1;fillColor=#66FFFF;fontColor=#000000;strokeColor=#006EAF;fontSize=9;" vertex="1" parent="1">
          <mxGeometry x="1420" y="367.75" width="150" height="20" as="geometry" />
        </mxCell>
        <mxCell id="JCwLTpMFITTxm-Wv9MS6-234" value="" style="rounded=1;whiteSpace=wrap;html=1;fillColor=#66FF66;" vertex="1" parent="1">
          <mxGeometry x="1430" y="170.75" width="130" height="173" as="geometry" />
        </mxCell>
        <mxCell id="JCwLTpMFITTxm-Wv9MS6-235" value="✓" style="text;whiteSpace=wrap;fontSize=100;fillColor=none;" vertex="1" parent="1">
          <mxGeometry x="1455" y="177.25" width="80" height="128" as="geometry" />
        </mxCell>
        <mxCell id="JCwLTpMFITTxm-Wv9MS6-236" value="Ваша карта успешно заказана" style="text;html=1;align=center;verticalAlign=middle;whiteSpace=wrap;rounded=0;" vertex="1" parent="1">
          <mxGeometry x="1420" y="281.88" width="150" height="60" as="geometry" />
        </mxCell>
        <mxCell id="JCwLTpMFITTxm-Wv9MS6-237" value="" style="endArrow=classic;html=1;rounded=0;entryX=0.001;entryY=0.06;entryDx=0;entryDy=0;entryPerimeter=0;edgeStyle=orthogonalEdgeStyle;" edge="1" parent="1" target="JCwLTpMFITTxm-Wv9MS6-65">
          <mxGeometry width="50" height="50" relative="1" as="geometry">
            <mxPoint x="170" y="377" as="sourcePoint" />
            <mxPoint x="280" y="363" as="targetPoint" />
          </mxGeometry>
        </mxCell>
        <mxCell id="JCwLTpMFITTxm-Wv9MS6-242" value="Открыл меню" style="edgeLabel;html=1;align=center;verticalAlign=middle;resizable=0;points=[];" vertex="1" connectable="0" parent="JCwLTpMFITTxm-Wv9MS6-237">
          <mxGeometry x="0.5719" y="2" relative="1" as="geometry">
            <mxPoint as="offset" />
          </mxGeometry>
        </mxCell>
        <mxCell id="JCwLTpMFITTxm-Wv9MS6-238" value="" style="endArrow=classic;html=1;rounded=0;entryX=0.033;entryY=0.046;entryDx=0;entryDy=0;entryPerimeter=0;edgeStyle=orthogonalEdgeStyle;" edge="1" parent="1" target="JCwLTpMFITTxm-Wv9MS6-104">
          <mxGeometry width="50" height="50" relative="1" as="geometry">
            <mxPoint x="438.52" y="376.24" as="sourcePoint" />
            <mxPoint x="568.52" y="139.24" as="targetPoint" />
          </mxGeometry>
        </mxCell>
        <mxCell id="JCwLTpMFITTxm-Wv9MS6-245" value="Нажал заказ карты" style="edgeLabel;html=1;align=center;verticalAlign=middle;resizable=0;points=[];" vertex="1" connectable="0" parent="JCwLTpMFITTxm-Wv9MS6-238">
          <mxGeometry x="0.5441" y="3" relative="1" as="geometry">
            <mxPoint x="21" y="-29" as="offset" />
          </mxGeometry>
        </mxCell>
        <mxCell id="JCwLTpMFITTxm-Wv9MS6-239" value="" style="endArrow=classic;html=1;rounded=0;entryX=0.006;entryY=0.054;entryDx=0;entryDy=0;entryPerimeter=0;edgeStyle=orthogonalEdgeStyle;" edge="1" parent="1" target="JCwLTpMFITTxm-Wv9MS6-127">
          <mxGeometry width="50" height="50" relative="1" as="geometry">
            <mxPoint x="623.52" y="378.24" as="sourcePoint" />
            <mxPoint x="756" y="138" as="targetPoint" />
            <Array as="points">
              <mxPoint x="623" y="443" />
              <mxPoint x="770" y="443" />
              <mxPoint x="770" y="138" />
            </Array>
          </mxGeometry>
        </mxCell>
        <mxCell id="JCwLTpMFITTxm-Wv9MS6-240" value="" style="endArrow=classic;html=1;rounded=0;entryX=0.006;entryY=0.054;entryDx=0;entryDy=0;entryPerimeter=0;edgeStyle=orthogonalEdgeStyle;" edge="1" parent="1">
          <mxGeometry width="50" height="50" relative="1" as="geometry">
            <mxPoint x="912.52" y="383.24" as="sourcePoint" />
            <mxPoint x="1130" y="143" as="targetPoint" />
            <Array as="points">
              <mxPoint x="912" y="448" />
              <mxPoint x="1059" y="448" />
              <mxPoint x="1059" y="143" />
            </Array>
          </mxGeometry>
        </mxCell>
        <mxCell id="JCwLTpMFITTxm-Wv9MS6-241" value="" style="endArrow=classic;html=1;rounded=0;edgeStyle=orthogonalEdgeStyle;entryX=0.037;entryY=0.054;entryDx=0;entryDy=0;entryPerimeter=0;" edge="1" parent="1" target="JCwLTpMFITTxm-Wv9MS6-219">
          <mxGeometry width="50" height="50" relative="1" as="geometry">
            <mxPoint x="1200" y="378.24" as="sourcePoint" />
            <mxPoint x="1410" y="138" as="targetPoint" />
            <Array as="points">
              <mxPoint x="1200" y="443" />
              <mxPoint x="1346" y="443" />
              <mxPoint x="1346" y="138" />
            </Array>
          </mxGeometry>
        </mxCell>
        <mxCell id="JCwLTpMFITTxm-Wv9MS6-243" value="Главная страница" style="text;html=1;align=center;verticalAlign=middle;resizable=0;points=[];autosize=1;strokeColor=none;fillColor=none;" vertex="1" parent="1">
          <mxGeometry x="50" y="93" width="120" height="30" as="geometry" />
        </mxCell>
        <mxCell id="JCwLTpMFITTxm-Wv9MS6-244" value="Страница меню" style="text;html=1;align=center;verticalAlign=middle;resizable=0;points=[];autosize=1;strokeColor=none;fillColor=none;" vertex="1" parent="1">
          <mxGeometry x="315" y="93" width="110" height="30" as="geometry" />
        </mxCell>
        <mxCell id="JCwLTpMFITTxm-Wv9MS6-247" value="Страница заполнения данных" style="text;html=1;align=center;verticalAlign=middle;resizable=0;points=[];autosize=1;strokeColor=none;fillColor=none;" vertex="1" parent="1">
          <mxGeometry x="838.5" y="93" width="190" height="30" as="geometry" />
        </mxCell>
        <mxCell id="JCwLTpMFITTxm-Wv9MS6-248" value="Страница выбора карт" style="text;html=1;align=center;verticalAlign=middle;resizable=0;points=[];autosize=1;strokeColor=none;fillColor=none;" vertex="1" parent="1">
          <mxGeometry x="1148" y="93" width="150" height="30" as="geometry" />
        </mxCell>
        <mxCell id="JCwLTpMFITTxm-Wv9MS6-249" value="Финальная страница" style="text;html=1;align=center;verticalAlign=middle;resizable=0;points=[];autosize=1;strokeColor=none;fillColor=none;" vertex="1" parent="1">
          <mxGeometry x="1420" y="93" width="140" height="30" as="geometry" />
        </mxCell>
        <mxCell id="JCwLTpMFITTxm-Wv9MS6-250" value="Страница подтверждения пользователя" style="text;html=1;align=center;verticalAlign=middle;whiteSpace=wrap;rounded=0;" vertex="1" parent="1">
          <mxGeometry x="569.5" y="80" width="161" height="50" as="geometry" />
        </mxCell>
        <mxCell id="JCwLTpMFITTxm-Wv9MS6-251" value="Подтвердил выбор пользователя&amp;nbsp;" style="edgeLabel;html=1;align=center;verticalAlign=middle;resizable=0;points=[];" vertex="1" connectable="0" parent="1">
          <mxGeometry x="690.0041176470588" y="452.99640754032293" as="geometry">
            <mxPoint x="7" as="offset" />
          </mxGeometry>
        </mxCell>
        <mxCell id="JCwLTpMFITTxm-Wv9MS6-254" value="Успешно заполнил необходимые данные" style="edgeLabel;html=1;align=center;verticalAlign=middle;resizable=0;points=[];" vertex="1" connectable="0" parent="1">
          <mxGeometry x="980.0041176470588" y="462.99640754032293" as="geometry">
            <mxPoint x="7" as="offset" />
          </mxGeometry>
        </mxCell>
        <mxCell id="JCwLTpMFITTxm-Wv9MS6-255" value="Подтвердил выбор карты" style="edgeLabel;html=1;align=center;verticalAlign=middle;resizable=0;points=[];" vertex="1" connectable="0" parent="1">
          <mxGeometry x="1257.5041176470588" y="452.99640754032293" as="geometry">
            <mxPoint x="14" y="7" as="offset" />
          </mxGeometry>
        </mxCell>
      </root>
    </mxGraphModel>
  </diagram>
</mxfile>
